<?xml version="1.0" standalone="no"?><!DOCTYPE svg PUBLIC "-//W3C//DTD SVG 1.1//EN" "http://www.w3.org/Graphics/SVG/1.1/DTD/svg11.dtd"><svg t="1672795979837" class="icon" viewBox="0 0 1024 1024" version="1.1" xmlns="http://www.w3.org/2000/svg" p-id="2062" xmlns:xlink="http://www.w3.org/1999/xlink" width="64" height="64"><path d="M708.3008 938.2912H320.0512c-108.288 0-196.096-87.808-196.096-196.096V279.3984c0-108.288 87.808-196.096 196.096-196.096h243.2512c11.8784 0 23.296 4.608 31.8976 12.8512l295.0656 283.392a46.09024 46.09024 0 0 1 14.1312 33.1776v329.4208c0 108.3392-87.808 196.1472-196.096 196.1472z" fill="#FF5D50" p-id="2063"></path><path d="M535.6544 83.3536v236.2368c0 51.456 41.728 93.184 93.184 93.184h275.5584c0-12.544-5.12-24.5248-14.1312-33.1776l-295.0656-283.392a46.01344 46.01344 0 0 0-31.8976-12.8512h-27.648zM496.5376 583.5776H320.0512c-28.2624 0-51.2-22.9376-51.2-51.2s22.9376-51.2 51.2-51.2h176.4864c28.2624 0 51.2 22.9376 51.2 51.2s-22.9376 51.2-51.2 51.2zM680.8576 789.4528H320.0512c-28.2624 0-51.2-22.9376-51.2-51.2s22.9376-51.2 51.2-51.2h360.8064c28.2624 0 51.2 22.9376 51.2 51.2s-22.9376 51.2-51.2 51.2z" fill="#FFDF99" p-id="2064"></path></svg>