<?xml version="1.0" standalone="no"?><!DOCTYPE svg PUBLIC "-//W3C//DTD SVG 1.1//EN" "http://www.w3.org/Graphics/SVG/1.1/DTD/svg11.dtd"><svg t="1672795945861" class="icon" viewBox="0 0 1024 1024" version="1.1" xmlns="http://www.w3.org/2000/svg" p-id="1738" xmlns:xlink="http://www.w3.org/1999/xlink" width="64" height="64"><path d="M277.76 905.3184h474.2656c83.6608 0 151.4496-67.7888 151.4496-151.4496V279.6032c0-83.6608-67.7888-151.4496-151.4496-151.4496H277.76c-83.6608 0-151.4496 67.7888-151.4496 151.4496v474.2656c0 83.6096 67.84 151.4496 151.4496 151.4496z" fill="#FF5D50" p-id="1739"></path><path d="M126.3104 698.9312l166.0928-163.7376c22.1696-21.8624 57.9072-21.4528 79.5648 0.9216l42.752 44.0832c21.7088 22.3744 57.4976 22.784 79.6672 0.8192l97.536-96.4608c21.9136-21.7088 57.2416-21.6064 79.0016 0.2048 57.9072 57.9072 166.2464 166.4 232.4992 232.96v38.656c0 82.2784-66.6624 148.9408-148.9408 148.9408h-479.232c-82.2784 0-148.9408-66.6624-148.9408-148.9408v-57.4464z" fill="#FFDF99" p-id="1740"></path><path d="M361.5744 335.4112m-68.7616 0a68.7616 68.7616 0 1 0 137.5232 0 68.7616 68.7616 0 1 0-137.5232 0Z" fill="#FFDF99" p-id="1741"></path></svg>