<?xml version="1.0" standalone="no"?><!DOCTYPE svg PUBLIC "-//W3C//DTD SVG 1.1//EN" "http://www.w3.org/Graphics/SVG/1.1/DTD/svg11.dtd"><svg t="1672795961072" class="icon" viewBox="0 0 1024 1024" version="1.1" xmlns="http://www.w3.org/2000/svg" p-id="1900" xmlns:xlink="http://www.w3.org/1999/xlink" width="64" height="64"><path d="M578.6624 554.4448l300.3904 173.4144c31.5392 18.2272 70.9632-4.5568 70.9632-40.96V340.0704c0-36.4032-39.424-59.1872-70.9632-40.96l-300.3904 173.4144c-31.5392 18.2272-31.5392 63.744 0 81.92z" fill="#FFDF99" p-id="1901"></path><path d="M613.0176 859.2384H229.9904c-85.1968 0-154.2656-69.0688-154.2656-154.2656v-382.976c0-85.1968 69.0688-154.2656 154.2656-154.2656h383.0272c85.1968 0 154.2656 69.0688 154.2656 154.2656v383.0272c0 85.1968-69.0688 154.2144-154.2656 154.2144z" fill="#FF5D50" p-id="1902"></path><path d="M266.0352 345.4464m-68.7616 0a68.7616 68.7616 0 1 0 137.5232 0 68.7616 68.7616 0 1 0-137.5232 0Z" fill="#FFDF99" p-id="1903"></path></svg>