<?xml version="1.0" standalone="no"?><!DOCTYPE svg PUBLIC "-//W3C//DTD SVG 1.1//EN" "http://www.w3.org/Graphics/SVG/1.1/DTD/svg11.dtd"><svg t="1672795982225" class="icon" viewBox="0 0 1024 1024" version="1.1" xmlns="http://www.w3.org/2000/svg" p-id="2223" xmlns:xlink="http://www.w3.org/1999/xlink" width="64" height="64"><path d="M717.6192 508.416m-224.8192 0a224.8192 224.8192 0 1 0 449.6384 0 224.8192 224.8192 0 1 0-449.6384 0Z" fill="#FFDF99" p-id="2224"></path><path d="M653.7216 922.7264L438.7328 797.696a103.34208 103.34208 0 0 0-48.64-12.1856h-194.048c-57.0368 0-103.2704-46.2336-103.2704-103.2704V370.7392c0-57.0368 46.2336-103.2704 103.2704-103.2704h187.8528c20.8896 0 41.3184-6.3488 58.5216-18.176l205.7728-151.7568c38.5024-26.4704 90.9312 1.0752 90.9312 47.8208v726.1696c0 43.8272-46.6944 71.8848-85.4016 51.2z" fill="#FF5D50" p-id="2225"></path><path d="M301.6704 674.2016c-28.2624 0-51.2-22.9376-51.2-51.2V434.8416c0-28.2624 22.9376-51.2 51.2-51.2s51.2 22.9376 51.2 51.2v188.1088c0 28.3136-22.9376 51.2512-51.2 51.2512z" fill="#FFDF99" p-id="2226"></path></svg>