<?xml version="1.0" standalone="no"?><!DOCTYPE svg PUBLIC "-//W3C//DTD SVG 1.1//EN" "http://www.w3.org/Graphics/SVG/1.1/DTD/svg11.dtd"><svg t="1672909668762" class="icon" viewBox="0 0 1024 1024" version="1.1" xmlns="http://www.w3.org/2000/svg" p-id="6945" xmlns:xlink="http://www.w3.org/1999/xlink" width="64" height="64"><path d="M594.944 0l335.12448 341.31968v563.2c0 65.9968-52.50048 119.48032-117.29408 119.48032H209.54624c-64.7936 0-117.2992-53.5296-117.2992-119.48032V119.48032C92.25216 53.48352 144.75776 0 209.55136 0H594.944z" fill="#D0D8E1" p-id="6946"></path><path d="M930.06848 341.31968h-211.9168c-64.74752 0-123.20768-59.48928-123.20768-125.4912V0l335.12448 341.31968z" fill="#FFFFFF" fill-opacity=".4" p-id="6947"></path><path d="M516.8384 438.0416h-31.2832c-2.2272 0-3.34848 1.16224-4.46464 2.2784-1.11616 1.11616-1.11616 3.39968-1.11616 5.6832 2.23232 4.5568 3.3536 10.24 3.3536 14.7968v147.9168l3.34848 22.76352c0 2.28352 2.23232 3.39968 3.3536 4.51584 1.11616 0 2.23232 1.16224 2.23232 1.16224l5.5808 3.39968a45.14816 45.14816 0 0 1 29.05088 42.12224v51.2c0 2.28352 1.11616 4.51584 3.34848 4.51584 1.11616 0 1.11616 1.16224 2.23744 1.16224 1.11616 0 2.23232 0 3.34848-1.16224a32.62976 32.62976 0 0 0 13.40416-27.27424V472.15616a31.65184 31.65184 0 0 0-32.39424-34.11456zM376.0896 460.8l-14.52544 51.2a12.288 12.288 0 0 0 2.23232 13.63968c4.46976 4.5568 21.22752 4.5568 25.69216 0 3.2768-3.72736 4.5312-8.82176 3.3536-13.63968L378.3168 460.8h-2.23232z" fill="#FFFFFF" p-id="6948"></path><path d="M366.0288 453.95968c1.12128-3.39968 3.3536-4.51584 5.58592-4.51584h11.17184c2.23744 0 4.46976 1.11616 5.58592 4.51584l6.7072 26.20416L404.00896 460.8l-13.40928-31.83616v-2.3296H360.448v2.3296L349.27616 460.8l8.9344 21.59616 7.81824-28.3904v-0.0512z" fill="#FFFFFF" p-id="6949"></path><path d="M354.39616 426.68032l-11.17184 31.84128v4.5568L354.39616 491.52c0.6912 1.41312 1.90976 2.50368 3.39456 3.0208l2.19136 0.37888-4.46976 13.68064a23.64416 23.64416 0 0 0 5.5808 24.99584c4.47488 4.56192 12.288 6.84544 21.22752 6.84544s16.75776-2.28352 21.22752-6.84544a24.2944 24.2944 0 0 0 6.656-21.4528l-5.58592-18.34496c0.78848 0 1.536-0.512 1.95584-1.16224l0.32256-1.11616 14.52544-28.4416a3.49184 3.49184 0 0 0 0.7424-3.11808l-0.7424-1.39264-14.52544-31.88736h35.74784a33.0496 33.0496 0 0 1 33.23392 29.37344L476.16 460.8v164.95616c0 8.79616 4.93056 15.9232 11.96032 19.92192l11.4944 5.12a32.86016 32.86016 0 0 1 22.016 26.99776l0.32768 4.88448v51.2c0 17.6896-12.19584 31.65184-28.85632 33.8432l-4.6592 0.27648H298.5472a33.0496 33.0496 0 0 1-33.23392-29.4144l-0.2816-4.70528V460.8c0-17.6896 12.19584-31.65184 28.86144-33.8432l4.65408-0.27648h55.85408z m16.75264 284.39552H359.9872c-3.3536 0-5.58592 2.32448-5.58592 5.72416 0 2.74432 1.39264 4.74624 3.72224 5.44768l1.86368 0.2304h11.16672c3.3536 0 5.58592-2.2784 5.58592-5.67808 0-2.74432-1.39264-4.74624-3.72224-5.44768l-1.86368-0.2304v-0.0512z m33.51552-11.35616h-11.17184c-3.34848 0-5.5808 2.32448-5.5808 5.72416 0 2.69824 1.39264 4.70016 3.71712 5.39648l1.86368 0.2816h11.17184c3.34848 0 5.5808-2.3296 5.5808-5.6832 0-2.7904-1.39264-4.74112-3.71712-5.44256l-1.86368-0.27648z m-33.51552-11.36128H359.9872c-3.3536 0-5.58592 2.28352-5.58592 5.6832 0 2.74432 1.39264 4.74624 3.72224 5.44256l1.86368 0.23552h11.16672c3.3536 0 5.58592-2.28352 5.58592-5.6832 0-2.74432-1.39264-4.74624-3.72224-5.39648l-1.86368-0.2816z m33.51552-11.40224h-11.17184c-3.34848 0-5.5808 2.3296-5.5808 5.72416 0 2.70336 1.39264 4.70528 3.71712 5.4016l1.86368 0.27648h11.17184c3.34848 0 5.5808-2.2784 5.5808-5.67808 0-2.74432-1.39264-4.74624-3.71712-5.44256l-1.86368-0.2816zM371.1488 665.6H359.9872c-3.3536 0-5.58592 2.2784-5.58592 5.6832 0 2.7392 1.39264 4.74112 3.72224 5.44256l1.86368 0.2304h11.16672c3.3536 0 5.58592-2.23232 5.58592-5.67808 0-2.69824-1.39264-4.70016-3.72224-5.39648L371.1488 665.6z m33.51552-11.35616h-11.17184c-3.34848 0-5.5808 2.23232-5.5808 5.67808 0 2.69824 1.39264 4.70016 3.71712 5.39648l1.86368 0.2816h11.17184c3.34848 0 5.5808-2.2784 5.5808-5.6832 0-2.7392-1.39264-4.74112-3.71712-5.44256l-1.86368-0.2304z m-33.51552-11.40224H359.9872c-3.3536 0-5.58592 2.2784-5.58592 5.67808 0 2.74432 1.39264 4.74624 3.72224 5.44256l1.86368 0.2816h11.16672c3.3536 0 5.58592-2.3296 5.58592-5.72416 0-2.70336-1.39264-4.70528-3.72224-5.4016l-1.86368-0.27648z m33.51552-11.36128h-11.17184c-3.34848 0-5.5808 2.28352-5.5808 5.6832 0 2.74432 1.39264 4.74624 3.71712 5.39648l1.86368 0.2816h11.17184c3.34848 0 5.5808-2.28352 5.5808-5.6832 0-2.74432-1.39264-4.74624-3.71712-5.44256l-1.86368-0.23552z m-33.51552-11.40224H359.9872c-3.3536 0-5.58592 2.3296-5.58592 5.6832 0 2.7904 1.39264 4.74112 3.72224 5.44256l1.86368 0.27648h11.16672c3.3536 0 5.58592-2.32448 5.58592-5.72416 0-2.69824-1.39264-4.70016-3.72224-5.39648l-1.86368-0.2816z m33.51552-11.35616h-11.17184c-3.34848 0-5.5808 2.2784-5.5808 5.67808 0 2.74432 1.39264 4.74624 3.71712 5.44768l1.86368 0.2304h11.17184c3.34848 0 5.5808-2.2784 5.5808-5.67808 0-2.74432-1.39264-4.74624-3.71712-5.44768l-1.86368-0.2304z m-33.51552-11.40224H359.9872c-3.3536 0-5.58592 2.32448-5.58592 5.72416 0 2.69824 1.39264 4.70016 3.72224 5.39648l1.86368 0.2816h11.16672c3.3536 0 5.58592-2.3296 5.58592-5.6832 0-2.7904-1.39264-4.74112-3.72224-5.44256l-1.86368-0.27648z m33.51552-11.36128h-11.17184c-3.34848 0-5.5808 2.28352-5.5808 5.6832 0 2.74432 1.39264 4.74624 3.71712 5.44256l1.86368 0.23552h11.17184c3.34848 0 5.5808-2.28352 5.5808-5.6832 0-2.74432-1.39264-4.74624-3.71712-5.39648l-1.86368-0.2816z m-33.51552-11.40224H359.9872c-3.3536 0-5.58592 2.3296-5.58592 5.72416 0 2.70336 1.39264 4.70528 3.72224 5.4016l1.86368 0.27648h11.16672c3.3536 0 5.58592-2.2784 5.58592-5.67808 0-2.74432-1.39264-4.74624-3.72224-5.44256l-1.86368-0.2816zM404.66432 563.2h-11.17184c-3.34848 0-5.5808 2.2784-5.5808 5.6832 0 2.7392 1.39264 4.74112 3.71712 5.44256l1.86368 0.2304h11.17184c3.34848 0 5.5808-2.23232 5.5808-5.67808 0-2.69824-1.39264-4.70016-3.71712-5.39648l-1.86368-0.2816z m-33.51552-11.35616H359.9872c-3.3536 0-5.58592 2.23232-5.58592 5.67808 0 2.69824 1.39264 4.70016 3.72224 5.39648l1.86368 0.2816h11.16672c3.3536 0 5.58592-2.2784 5.58592-5.6832 0-2.7392-1.39264-4.74112-3.72224-5.44256l-1.86368-0.2304z" fill="#FFFFFF" p-id="6950"></path></svg>