<?xml version="1.0" standalone="no"?><!DOCTYPE svg PUBLIC "-//W3C//DTD SVG 1.1//EN" "http://www.w3.org/Graphics/SVG/1.1/DTD/svg11.dtd"><svg t="1672537449647" class="icon" viewBox="0 0 1024 1024" version="1.1" xmlns="http://www.w3.org/2000/svg" p-id="16714" xmlns:xlink="http://www.w3.org/1999/xlink" width="64" height="64"><path d="M405.333333 535.637333c117.546667 0 211.754667-95.445333 211.754667-214.485333S522.88 106.666667 405.333333 106.666667 193.578667 202.112 193.578667 321.152s94.208 214.485333 211.754666 214.485333z m0 105.002667c-172.629333 0-320 27.605333-320 137.856C85.333333 888.746667 231.808 917.333333 405.333333 917.333333c172.586667 0 320-27.605333 320-137.856 0-110.293333-146.474667-138.837333-320-138.837333z m443.648-231.552H900.266667c21.12 0 38.357333 17.493333 38.357333 38.912a38.698667 38.698667 0 0 1-38.357333 38.869333h-51.328v50.218667a38.656 38.656 0 0 1-38.357334 38.912 38.698667 38.698667 0 0 1-38.357333-38.912v-50.218667h-51.242667A38.656 38.656 0 0 1 682.666667 448c0-21.418667 17.194667-38.869333 38.357333-38.869333H772.266667V358.912c0-21.461333 17.237333-38.912 38.357333-38.912 21.162667 0 38.357333 17.493333 38.357333 38.912v50.176z" fill="#200E32" p-id="16715"></path></svg>