<?xml version="1.0" standalone="no"?><!DOCTYPE svg PUBLIC "-//W3C//DTD SVG 1.1//EN" "http://www.w3.org/Graphics/SVG/1.1/DTD/svg11.dtd"><svg t="1672537362167" class="icon" viewBox="0 0 1024 1024" version="1.1" xmlns="http://www.w3.org/2000/svg" p-id="14818" xmlns:xlink="http://www.w3.org/1999/xlink" width="64" height="64"><path d="M337.92 85.333333h348.586667C837.12 85.333333 938.666667 182.229333 938.666667 326.826667v369.92c0 144.64-101.546667 241.92-252.16 241.92H337.92C186.88 938.666667 85.333333 841.386667 85.333333 696.746667V326.826667C85.333333 182.229333 186.88 85.333333 337.92 85.333333z m77.226667 458.666667h270.933333c17.92 0 32-14.506667 32-32 0-17.92-14.08-32-32-32H415.146667l105.813333-105.386667c5.973333-5.973333 9.386667-14.506667 9.386667-22.613333 0-8.064-3.413333-16.213333-9.386667-22.613333a32.170667 32.170667 0 0 0-45.226667 0l-160.853333 160c-11.946667 11.946667-11.946667 33.28 0 45.226666l160.853333 160c12.373333 12.373333 32.853333 12.373333 45.226667 0 12.373333-12.8 12.373333-32.853333 0-45.653333l-105.813333-104.96z" fill="#200E32" p-id="14819"></path></svg>