<?xml version="1.0" standalone="no"?><!DOCTYPE svg PUBLIC "-//W3C//DTD SVG 1.1//EN" "http://www.w3.org/Graphics/SVG/1.1/DTD/svg11.dtd"><svg t="1672537359643" class="icon" viewBox="0 0 1024 1024" version="1.1" xmlns="http://www.w3.org/2000/svg" p-id="14658" xmlns:xlink="http://www.w3.org/1999/xlink" width="64" height="64"><path d="M85.333333 686.08V337.493333C85.333333 186.88 182.186667 85.333333 326.826667 85.333333h369.92C841.386667 85.333333 938.666667 186.88 938.666667 337.493333v348.586667c0 151.04-97.28 252.586667-241.92 252.586667H326.826667C182.186667 938.666667 85.333333 837.12 85.333333 686.08z m458.666667-77.226667V337.92c0-17.92-14.506667-32-32-32-17.92 0-32 14.08-32 32v270.933333l-105.386667-105.813333a32.725333 32.725333 0 0 0-22.613333-9.386667c-8.106667 0-16.213333 3.413333-22.613333 9.386667-12.373333 12.373333-12.373333 32.853333 0 45.226667l160 160.853333c11.946667 11.946667 33.28 11.946667 45.226666 0l160-160.853333c12.373333-12.373333 12.373333-32.853333 0-45.226667a32.725333 32.725333 0 0 0-45.653333 0l-104.96 105.813333z" fill="#200E32" p-id="14659"></path></svg>