<?xml version="1.0" standalone="no"?><!DOCTYPE svg PUBLIC "-//W3C//DTD SVG 1.1//EN" "http://www.w3.org/Graphics/SVG/1.1/DTD/svg11.dtd"><svg t="1672537383732" class="icon" viewBox="0 0 1024 1024" version="1.1" xmlns="http://www.w3.org/2000/svg" p-id="16086" xmlns:xlink="http://www.w3.org/1999/xlink" width="64" height="64"><path d="M518.058667 281.173333a30.506667 30.506667 0 0 0-16.213334 26.752v173.482667H159.317333A30.976 30.976 0 0 0 128 512c0 16.896 14.037333 30.592 31.317333 30.592h342.528v173.482667c0 11.178667 6.229333 21.418667 16.213334 26.752 9.984 5.418667 22.186667 5.077333 31.786666-0.853334l331.52-204.074666A30.464 30.464 0 0 0 896 512a30.464 30.464 0 0 0-14.634667-25.898667l-331.52-204.074666a32.170667 32.170667 0 0 0-31.786666-0.853334z" fill="#200E32" p-id="16087"></path></svg>