<?xml version="1.0" standalone="no"?><!DOCTYPE svg PUBLIC "-//W3C//DTD SVG 1.1//EN" "http://www.w3.org/Graphics/SVG/1.1/DTD/svg11.dtd"><svg t="1672537373042" class="icon" viewBox="0 0 1024 1024" version="1.1" xmlns="http://www.w3.org/2000/svg" p-id="15456" xmlns:xlink="http://www.w3.org/1999/xlink" width="64" height="64"><path d="M938.666667 512c0 235.52-191.573333 426.666667-426.666667 426.666667l-11.946667-0.170667C270.08 932.181333 85.333333 743.509333 85.333333 512 85.333333 276.906667 276.48 85.333333 512 85.333333c235.093333 0 426.666667 191.573333 426.666667 426.666667zM427.52 341.333333c-12.373333 12.8-12.373333 32.853333 0.426667 45.226667L553.813333 512l-125.866666 125.44c-12.8 12.373333-12.8 32.853333-0.426667 45.226667 12.8 12.8 32.853333 12.8 45.226667 0l148.906666-148.053334a32 32 0 0 0 0-45.226666L472.746667 341.333333a30.037333 30.037333 0 0 0-22.186667-9.386666c-8.533333 0-16.64 2.986667-23.04 9.386666z" fill="#200E32" p-id="15457"></path></svg>