<?xml version="1.0" standalone="no"?><!DOCTYPE svg PUBLIC "-//W3C//DTD SVG 1.1//EN" "http://www.w3.org/Graphics/SVG/1.1/DTD/svg11.dtd"><svg t="1672537443564" class="icon" viewBox="0 0 1024 1024" version="1.1" xmlns="http://www.w3.org/2000/svg" p-id="16402" xmlns:xlink="http://www.w3.org/1999/xlink" width="64" height="64"><path d="M742.826667 518.058667a30.506667 30.506667 0 0 0-26.752-16.213334h-173.482667V159.317333A30.976 30.976 0 0 0 512 128a30.976 30.976 0 0 0-30.592 31.317333v342.528H307.925333a30.378667 30.378667 0 0 0-26.752 16.213334 31.914667 31.914667 0 0 0 0.853334 31.786666l204.074666 331.52c5.632 9.130667 15.36 14.634667 25.898667 14.634667s20.266667-5.546667 25.898667-14.634667l204.074666-331.52a32.170667 32.170667 0 0 0 0.853334-31.786666z" fill="#200E32" p-id="16403"></path></svg>