<?xml version="1.0" standalone="no"?><!DOCTYPE svg PUBLIC "-//W3C//DTD SVG 1.1//EN" "http://www.w3.org/Graphics/SVG/1.1/DTD/svg11.dtd"><svg t="1672537385991" class="icon" viewBox="0 0 1024 1024" version="1.1" xmlns="http://www.w3.org/2000/svg" p-id="16242" xmlns:xlink="http://www.w3.org/1999/xlink" width="64" height="64"><path d="M85.333333 512C85.333333 276.48 276.906667 85.333333 512 85.333333l11.946667 0.170667C753.92 91.818667 938.666667 280.490667 938.666667 512c0 235.093333-191.146667 426.666667-426.666667 426.666667-235.093333 0-426.666667-191.573333-426.666667-426.666667z m511.146667 170.666667c12.373333-12.8 12.373333-32.853333-0.426667-45.226667L470.186667 512l125.866666-125.44c12.8-12.373333 12.8-32.853333 0.426667-45.226667-12.8-12.8-32.853333-12.8-45.226667 0l-148.906666 148.053334a32 32 0 0 0 0 45.226666L551.253333 682.666667c5.973333 6.4 14.08 9.386667 22.186667 9.386666 8.533333 0 16.64-2.986667 23.04-9.386666z" fill="#200E32" p-id="16243"></path></svg>