<?xml version="1.0" standalone="no"?><!DOCTYPE svg PUBLIC "-//W3C//DTD SVG 1.1//EN" "http://www.w3.org/Graphics/SVG/1.1/DTD/svg11.dtd"><svg t="1672537367497" class="icon" viewBox="0 0 1024 1024" version="1.1" xmlns="http://www.w3.org/2000/svg" p-id="15136" xmlns:xlink="http://www.w3.org/1999/xlink" width="64" height="64"><path d="M512 938.666667C276.48 938.666667 85.333333 747.093333 85.333333 512 85.333333 276.48 276.48 85.333333 512 85.333333c235.093333 0 426.666667 191.146667 426.666667 426.666667 0 235.093333-191.573333 426.666667-426.666667 426.666667z m170.666667-511.146667a31.786667 31.786667 0 0 0-45.226667 0.426667L512 553.813333l-125.44-125.866666c-12.373333-12.8-32.853333-12.8-45.226667-0.426667-12.8 12.8-12.8 32.853333 0 45.226667l148.053334 148.906666a32 32 0 0 0 45.226666 0L682.666667 472.746667c6.4-5.973333 9.386667-14.08 9.386666-22.186667 0-8.533333-2.986667-16.64-9.386666-23.04z" fill="#200E32" p-id="15137"></path></svg>