<?xml version="1.0" standalone="no"?><!DOCTYPE svg PUBLIC "-//W3C//DTD SVG 1.1//EN" "http://www.w3.org/Graphics/SVG/1.1/DTD/svg11.dtd"><svg t="1672537479293" class="icon" viewBox="0 0 1024 1024" version="1.1" xmlns="http://www.w3.org/2000/svg" p-id="18456" xmlns:xlink="http://www.w3.org/1999/xlink" width="64" height="64"><path d="M419.285333 460.842667l-114.602666 117.546666C230.229333 493.824 168.917333 406.186667 139.733333 332.928c-30.421333-68.522667-30.848-125.312-0.426666-167.808 11.861333-19.968 80.810667-103.68 142.08-101.077333 16.512 1.28 32.597333 9.984 47.786666 25.6 23.722667 23.893333 90.538667 110.165333 95.573334 135.296 5.845333 27.989333-6.186667 49.792-17.024 69.376l-0.682667 1.28a343.637333 343.637333 0 0 1-8.704 13.952c-13.354667 20.821333-31.573333 49.152-25.173333 67.2 11.861333 29.013333 27.52 57.216 46.122666 84.096z m517.205334 267.605333c2.133333 64.597333-83.328 137.898667-98.986667 146.986667a118.912 118.912 0 0 1-71.850667 22.997333c-27.52 0-58.368-7.808-91.776-23.893333-79.104-33.792-176.768-105.813333-267.690666-191.189334l-259.242667 265.813334a36.522667 36.522667 0 0 1-25.386667 10.837333 38.314667 38.314667 0 0 1-25.770666-10.837333 38.314667 38.314667 0 0 1-5.504-45.098667l1.28-1.706667a22.101333 22.101333 0 0 1 2.986666-3.925333l766.293334-786.261333a34.816 34.816 0 0 1 25.344-11.306667c9.728 0 19.029333 4.394667 25.813333 11.306667a38.101333 38.101333 0 0 1 0 52.48v0.426666l-401.792 411.562667-58.538667 60.074667 68.266667-69.973334c35.114667 27.690667 73.173333 50.688 112.085333 66.773334 16.938667 6.4 43.605333-11.52 63.872-25.173334 5.504-3.669333 10.538667-7.082667 14.762667-9.6l1.28-0.725333c19.114667-11.093333 40.362667-23.424 67.242667-17.493333 24.96 5.248 109.098667 75.050667 132.352 99.328 15.232 16.042667 23.253333 32.512 24.96 48.597333z" fill="#200E32" p-id="18457"></path></svg>