<?xml version="1.0" standalone="no"?><!DOCTYPE svg PUBLIC "-//W3C//DTD SVG 1.1//EN" "http://www.w3.org/Graphics/SVG/1.1/DTD/svg11.dtd"><svg t="1672537501806" class="icon" viewBox="0 0 1024 1024" version="1.1" xmlns="http://www.w3.org/2000/svg" p-id="19882" xmlns:xlink="http://www.w3.org/1999/xlink" width="64" height="64"><path d="M775.125333 613.546667c-28.672-6.186667-51.370667 7.125333-71.424 18.773333-20.565333 11.946667-59.648 43.648-82.048 35.541333-114.773333-47.232-222.634667-147.626667-269.354666-262.826666-8.234667-22.869333 23.338667-62.250667 35.242666-83.029334 11.52-20.138667 24.533333-43.008 18.602667-71.893333-5.376-25.941333-74.837333-114.346667-99.413333-138.538667-16.213333-15.957333-32.768-24.746667-49.834667-26.154666C192.853333 82.688 121.301333 168.149333 108.8 188.586667c-31.402667 43.605333-31.232 101.632 0.554667 171.946666 76.586667 188.970667 366.293333 474.112 555.946666 553.6 34.986667 16.341333 66.986667 24.533333 95.744 24.533334a124.586667 124.586667 0 0 0 74.709334-23.381334c16.256-9.386667 105.216-84.48 102.912-150.229333-1.408-16.768-10.197333-33.536-25.941334-49.792-23.978667-24.746667-111.786667-96.298667-137.557333-101.717333z" fill="#200E32" p-id="19883"></path></svg>