<?xml version="1.0" standalone="no"?><!DOCTYPE svg PUBLIC "-//W3C//DTD SVG 1.1//EN" "http://www.w3.org/Graphics/SVG/1.1/DTD/svg11.dtd"><svg t="1672537460681" class="icon" viewBox="0 0 1024 1024" version="1.1" xmlns="http://www.w3.org/2000/svg" p-id="17346" xmlns:xlink="http://www.w3.org/1999/xlink" width="64" height="64"><path d="M927.573333 149.546667l-102.528 102.954666 102.570667 102.912c7.125333 7.168 11.050667 16.682667 11.050667 26.752a37.717333 37.717333 0 0 1-64.341334 26.794667L771.754667 305.92l-102.570667 102.997333a38.528 38.528 0 0 1-53.290667 0 37.802667 37.802667 0 0 1 0-53.546666l102.570667-102.912-102.570667-102.954667a37.802667 37.802667 0 0 1 0-53.504 38.528 38.528 0 0 1 53.290667 0l102.570667 102.954667 102.570666-102.954667a38.528 38.528 0 0 1 53.290667 0c7.125333 7.168 11.050667 16.64 11.050667 26.752a37.717333 37.717333 0 0 1-11.093334 26.752z m-236.8 490.24c19.541333-11.306667 41.557333-24.021333 69.376-18.090667 25.173333 5.290667 111.146667 75.050667 134.613334 99.2 15.445333 15.829333 23.978667 32.170667 25.386666 48.512 2.261333 64.128-84.778667 137.301333-100.693333 146.432a122.112 122.112 0 0 1-73.088 22.826667c-28.117333 0-59.434667-8.021333-93.653333-23.936-185.557333-77.482667-468.992-355.413333-543.957334-539.648-31.061333-68.522667-31.274667-125.056-0.512-167.552 12.288-19.925333 82.346667-103.253333 144.938667-100.608 16.64 1.450667 32.896 9.984 48.768 25.557333 24.021333 23.552 91.989333 109.738667 97.28 134.997333 5.76 28.117333-6.954667 50.474667-18.261333 70.101334-2.389333 4.181333-5.632 9.173333-9.173334 14.592-13.568 20.821333-31.658667 48.64-25.258666 66.346666 45.653333 112.213333 151.253333 210.133333 263.466666 256.128 17.408 6.314667 45.056-11.818667 65.792-25.429333 5.418667-3.541333 10.325333-6.784 14.506667-9.173333l0.426667-0.298667z" fill="#200E32" p-id="17347"></path></svg>