<?xml version="1.0" standalone="no"?><!DOCTYPE svg PUBLIC "-//W3C//DTD SVG 1.1//EN" "http://www.w3.org/Graphics/SVG/1.1/DTD/svg11.dtd"><svg t="1672537467133" class="icon" viewBox="0 0 1024 1024" version="1.1" xmlns="http://www.w3.org/2000/svg" p-id="17820" xmlns:xlink="http://www.w3.org/1999/xlink" width="64" height="64"><path d="M193.706667 85.333333h144.213333c60.16 0 108.373333 49.066667 108.373333 109.269334V340.053333c0 60.586667-48.213333 109.226667-108.373333 109.226667H193.706667C133.973333 449.28 85.333333 400.64 85.333333 340.053333V194.602667C85.333333 134.4 133.973333 85.333333 193.706667 85.333333z m0 489.386667h144.213333c60.16 0 108.373333 48.64 108.373333 109.226667v145.493333c0 60.16-48.213333 109.226667-108.373333 109.226667H193.706667C133.973333 938.666667 85.333333 889.6 85.333333 829.44v-145.493333c0-60.586667 48.64-109.226667 108.373334-109.226667zM830.293333 85.333333h-144.213333c-60.16 0-108.373333 49.066667-108.373333 109.269334V340.053333c0 60.586667 48.213333 109.226667 108.373333 109.226667h144.213333c59.733333 0 108.373333-48.64 108.373334-109.226667V194.602667C938.666667 134.4 890.026667 85.333333 830.293333 85.333333z m-144.213333 489.386667h144.213333c59.733333 0 108.373333 48.64 108.373334 109.226667v145.493333c0 60.16-48.64 109.226667-108.373334 109.226667h-144.213333c-60.16 0-108.373333-49.066667-108.373333-109.226667v-145.493333c0-60.586667 48.213333-109.226667 108.373333-109.226667z" fill="#200E32" p-id="17821"></path></svg>