<?xml version="1.0" standalone="no"?><!DOCTYPE svg PUBLIC "-//W3C//DTD SVG 1.1//EN" "http://www.w3.org/Graphics/SVG/1.1/DTD/svg11.dtd"><svg t="1672537566055" class="icon" viewBox="0 0 1024 1024" version="1.1" xmlns="http://www.w3.org/2000/svg" p-id="22904" xmlns:xlink="http://www.w3.org/1999/xlink" width="64" height="64"><path d="M312.746667 85.333333h398.506666c145.066667 0 226.986667 82.346667 227.413334 227.413334v398.506666c0 145.066667-82.346667 227.413333-227.413334 227.413334H312.746667C167.68 938.666667 85.333333 856.32 85.333333 711.253333V312.746667C85.333333 167.68 167.68 85.333333 312.746667 85.333333z m201.386666 676.693334c18.346667 0 33.706667-13.653333 35.413334-32V295.253333a34.773333 34.773333 0 0 0-16.213334-33.706666 35.84 35.84 0 0 0-54.613333 33.706666v434.773334c2.133333 18.346667 17.493333 32 35.413333 32z m196.266667 0c17.92 0 33.28-13.653333 35.413333-32v-139.946667a35.797333 35.797333 0 0 0-54.613333-33.706667 34.389333 34.389333 0 0 0-16.213333 33.706667v139.946667c1.706667 18.346667 17.066667 32 35.413333 32z m-359.68-32a35.285333 35.285333 0 0 1-35.413333 32c-18.346667 0-33.706667-13.653333-35.413334-32V435.2a35.84 35.84 0 0 1 16.64-33.706667c11.52-7.253333 26.026667-7.253333 37.546667 0s17.92 20.48 16.64 33.706667v294.826667z" fill="#200E32" p-id="22905"></path></svg>