<?xml version="1.0" standalone="no"?><!DOCTYPE svg PUBLIC "-//W3C//DTD SVG 1.1//EN" "http://www.w3.org/Graphics/SVG/1.1/DTD/svg11.dtd"><svg t="1672537538760" class="icon" viewBox="0 0 1024 1024" version="1.1" xmlns="http://www.w3.org/2000/svg" p-id="21946" xmlns:xlink="http://www.w3.org/1999/xlink" width="64" height="64"><path d="M617.685333 189.525333l310.144 538.24c6.826667 16.085333 9.813333 29.141333 10.666667 42.709334a117.76 117.76 0 0 1-31.146667 86.229333c-21.76 23.637333-51.2 37.589333-83.2 39.296H199.68c-13.226667-0.810667-26.453333-3.84-38.826667-8.448-61.866667-24.96-91.733333-95.146667-66.56-155.989333L406.613333 189.141333a116.48 116.48 0 0 1 46.890667-46.08 121.6 121.6 0 0 1 164.266667 46.506667z m-68.693333 354.730667c0 20.266667-16.64 37.248-37.12 37.248a37.76 37.76 0 0 1-37.546667-37.248V424.618667c0-20.309333 17.066667-36.778667 37.546667-36.778667s37.12 16.469333 37.12 36.778667v119.637333z m-37.12 181.845333a37.717333 37.717333 0 0 1-37.546667-37.205333c0-20.352 17.066667-37.248 37.546667-37.248s37.12 16.512 37.12 36.778667c0 20.693333-16.64 37.674667-37.12 37.674666z" fill="#200E32" p-id="21947"></path></svg>