<?xml version="1.0" standalone="no"?><!DOCTYPE svg PUBLIC "-//W3C//DTD SVG 1.1//EN" "http://www.w3.org/Graphics/SVG/1.1/DTD/svg11.dtd"><svg t="1672537475864" class="icon" viewBox="0 0 1024 1024" version="1.1" xmlns="http://www.w3.org/2000/svg" p-id="18296" xmlns:xlink="http://www.w3.org/1999/xlink" width="64" height="64"><path d="M85.333333 512C85.333333 276.48 276.053333 85.333333 512 85.333333c235.52 0 426.666667 191.146667 426.666667 426.666667 0 235.946667-191.146667 426.666667-426.666667 426.666667-235.946667 0-426.666667-190.72-426.666667-426.666667z m521.813334 78.08l69.12-218.453333a19.2 19.2 0 0 0-23.893334-24.32l-218.453333 68.266666c-8.96 2.986667-16.213333 9.813333-18.773333 18.773334l-68.266667 218.88c-4.693333 14.506667 9.386667 28.586667 23.893333 23.893333l217.6-68.266667c8.96-2.56 16.213333-9.813333 18.773334-18.773333z" fill="#200E32" p-id="18297"></path></svg>