<?xml version="1.0" standalone="no"?><!DOCTYPE svg PUBLIC "-//W3C//DTD SVG 1.1//EN" "http://www.w3.org/Graphics/SVG/1.1/DTD/svg11.dtd"><svg t="1672537506362" class="icon" viewBox="0 0 1024 1024" version="1.1" xmlns="http://www.w3.org/2000/svg" p-id="20042" xmlns:xlink="http://www.w3.org/1999/xlink" width="64" height="64"><path d="M573.866667 208.213333h130.986666c157.44 0 234.24 84.053333 233.813334 256.426667v207.786667c0 164.693333-101.546667 266.24-266.666667 266.24H351.573333C187.306667 938.666667 85.333333 837.12 85.333333 672V351.573333C85.333333 174.933333 163.84 85.333333 318.72 85.333333h67.413333c39.68-0.426667 76.8 17.92 101.12 49.066667l37.546667 49.92c11.946667 14.933333 29.866667 23.893333 49.066667 23.893333zM314.453333 652.373333h395.093334c17.493333 0 31.573333-14.506667 31.573333-32a31.573333 31.573333 0 0 0-31.573333-32H314.453333c-17.92 0-32 14.08-32 32 0 17.493333 14.08 32 32 32z" fill="#200E32" p-id="20043"></path></svg>