<?xml version="1.0" standalone="no"?><!DOCTYPE svg PUBLIC "-//W3C//DTD SVG 1.1//EN" "http://www.w3.org/Graphics/SVG/1.1/DTD/svg11.dtd"><svg t="1672537524095" class="icon" viewBox="0 0 1024 1024" version="1.1" xmlns="http://www.w3.org/2000/svg" p-id="21154" xmlns:xlink="http://www.w3.org/1999/xlink" width="64" height="64"><path d="M646.997333 259.541333l40.448 0.469334c145.28 0 251.221333 103.594667 251.221334 246.613333v183.765333c0 143.061333-105.941333 246.613333-251.221334 246.613334A8256 8256 0 0 1 512.426667 938.666667c-58.624 0-117.674667-0.426667-175.872-1.621334-145.28 0-251.221333-103.594667-251.221334-246.613333v-183.765333c0-143.061333 105.941333-246.613333 251.648-246.613334 54.869333-0.853333 110.933333-1.706667 167.893334-1.706666v-6.954667c0-28.373333-23.893333-51.370667-52.309334-51.370667h-41.472c-47.317333 0-85.845333-37.802667-85.845333-83.84 0-16.853333 14.250667-30.848 31.402667-30.848 17.578667 0 31.402667 13.994667 31.402666 30.848 0 12.330667 10.496 22.186667 23.04 22.186667h41.472c63.189333 0.426667 114.688 50.944 115.114667 112.64v7.808c26.410667 0 52.821333 0.341333 79.317333 0.725333z m-183.978666 369.621334h-43.946667v43.52a31.36 31.36 0 0 1-31.445333 30.848 31.061333 31.061333 0 0 1-31.402667-30.805334v-43.562666H311.893333a31.061333 31.061333 0 0 1-31.402666-30.848c0-16.853333 14.250667-30.805333 31.402666-30.805334h44.373334v-43.178666c0-16.853333 13.824-30.848 31.402666-30.848 17.194667 0 31.402667 13.994667 31.402667 30.848v43.178666h43.946667c17.194667 0 31.445333 13.952 31.445333 30.805334a31.061333 31.061333 0 0 1-31.402667 30.848z m177.92-69.504h4.224a31.061333 31.061333 0 0 0 31.402666-30.805334 31.36 31.36 0 0 0-31.402666-30.848h-4.181334a30.805333 30.805333 0 1 0 0 61.653334z m71.637333 141.44h4.181333a31.061333 31.061333 0 0 0 31.402667-30.848 31.36 31.36 0 0 0-31.402667-30.848H712.533333a30.805333 30.805333 0 1 0 0 61.653333z" fill="#200E32" p-id="21155"></path></svg>