<?xml version="1.0" standalone="no"?><!DOCTYPE svg PUBLIC "-//W3C//DTD SVG 1.1//EN" "http://www.w3.org/Graphics/SVG/1.1/DTD/svg11.dtd"><svg t="1672537499346" class="icon" viewBox="0 0 1024 1024" version="1.1" xmlns="http://www.w3.org/2000/svg" p-id="19724" xmlns:xlink="http://www.w3.org/1999/xlink" width="64" height="64"><path d="M676.266667 106.666667c26.88 0 53.76 3.84 79.36 12.373333 157.44 51.2 214.186667 224 166.826666 375.04a543.061333 543.061333 0 0 1-128.426666 205.226667 1640.789333 1640.789333 0 0 1-270.08 211.626666l-10.666667 6.4-11.093333-6.826666a1625.344 1625.344 0 0 1-271.786667-211.626667 551.808 551.808 0 0 1-128.426667-204.8c-48.213333-151.04 8.533333-323.84 167.68-375.893333 12.373333-4.266667 25.173333-7.253333 37.973334-8.96h5.12c11.946667-1.706667 23.893333-2.56 35.84-2.56h4.693333c26.88 0.853333 52.906667 5.546667 78.08 14.08h2.56c1.706667 0.853333 2.986667 1.706667 3.84 2.56 9.386667 2.986667 18.346667 6.4 26.88 11.093333l16.213333 7.253333c3.925333 2.133333 8.32 5.333333 12.117334 8.106667 2.389333 1.706667 4.565333 3.285333 6.229333 4.266667l2.133333 1.28c3.626667 2.133333 7.466667 4.352 10.666667 6.826666a267.221333 267.221333 0 0 1 164.266667-55.466666z m113.493333 307.2c17.493333-0.426667 32.426667-14.506667 33.706667-32.426667v-5.12a140.8 140.8 0 0 0-90.026667-134.826667 34.133333 34.133333 0 0 0-43.093333 21.333334c-5.973333 17.92 3.413333 37.546667 21.333333 43.946666 27.306667 10.24 45.653333 37.12 45.653333 66.986667v1.28a36.693333 36.693333 0 0 0 8.106667 26.453333c5.973333 7.253333 14.933333 11.52 24.32 12.373334z" fill="#200E32" p-id="19725"></path></svg>