<?xml version="1.0" standalone="no"?><!DOCTYPE svg PUBLIC "-//W3C//DTD SVG 1.1//EN" "http://www.w3.org/Graphics/SVG/1.1/DTD/svg11.dtd"><svg t="1672537527767" class="icon" viewBox="0 0 1024 1024" version="1.1" xmlns="http://www.w3.org/2000/svg" p-id="21312" xmlns:xlink="http://www.w3.org/1999/xlink" width="64" height="64"><path d="M418.261333 650.794667c26.666667 18.048 59.136 28.970667 93.696 28.970666 91.562667 0 166.101333-75.178667 166.101334-167.594666 0-34.858667-10.837333-67.626667-28.714667-94.506667l-45.397333 45.781333c7.509333 14.250667 11.648 31.061333 11.648 48.725334 0 57.514667-46.634667 104.576-103.68 104.576-17.493333 0-34.133333-4.181333-48.256-11.733334l-45.397334 45.781334zM786.346667 279.466667c60.373333 55.466667 111.573333 130.176 149.888 220.074666a32 32 0 0 1 0 24.789334c-89.130667 209.194667-247.722667 334.378667-424.234667 334.378666h-0.426667c-80.341333 0-157.354667-26.453333-225.237333-74.794666l-80.768 81.493333a30.72 30.72 0 0 1-22.058667 9.258667 30.08 30.08 0 0 1-22.058666-9.258667 31.402667 31.402667 0 0 1-3.754667-39.466667l1.28-1.706666 615.68-621.226667c0.853333-0.853333 1.706667-1.706667 2.133333-2.56 0.810667-0.853333 1.621333-1.664 2.048-2.474667l39.125334-39.509333a31.189333 31.189333 0 0 1 44.16 0 31.146667 31.146667 0 0 1 0 44.544L786.304 279.466667z m-440.746667 232.874666c0 10.922667 1.237333 21.845333 2.901333 31.914667l-154.026666 155.392c-41.642667-48.725333-77.866667-107.52-106.581334-175.146667a32 32 0 0 1 0-24.746666c89.088-209.237333 247.68-333.994667 423.808-333.994667h0.426667c59.52 0 117.333333 14.293333 170.666667 41.173333l-139.093334 140.288a192.64 192.64 0 0 0-31.573333-2.944c-92.032 0-166.570667 75.221333-166.570667 168.021334z" fill="#200E32" p-id="21313"></path></svg>