<?xml version="1.0" standalone="no"?><!DOCTYPE svg PUBLIC "-//W3C//DTD SVG 1.1//EN" "http://www.w3.org/Graphics/SVG/1.1/DTD/svg11.dtd"><svg t="1672537581951" class="icon" viewBox="0 0 1024 1024" version="1.1" xmlns="http://www.w3.org/2000/svg" p-id="24018" xmlns:xlink="http://www.w3.org/1999/xlink" width="64" height="64"><path d="M325.845333 144.853333c-109.952 0-180.992 75.392-180.992 191.701334v350.464c0 32.64 6.058667 61.781333 16.426667 87.04l22.954667-27.989334c24.917333-30.293333 61.141333-74.496 61.44-74.752 29.482667-33.706667 84.906667-83.968 157.653333-53.546666 15.957333 6.613333 30.122667 15.701333 43.178667 24.021333l3.754666 2.389333c24.448 16.341333 38.826667 24.021333 53.76 22.741334 6.186667-0.853333 11.989333-2.688 17.493334-6.101334 20.778667-12.8 74.624-89.045333 90.709333-111.872l4.437333-6.272c46.506667-60.586667 118.186667-76.8 177.92-40.96 8.021333 4.778667 65.493333 44.928 84.522667 61.056V336.554667c0-116.309333-71.04-191.701333-181.333333-191.701334H325.802667zM697.728 85.333333C841.813333 85.333333 938.666667 186.112 938.666667 336.554667v350.464c0 3.84-0.384 7.338667-0.768 10.88a129.877333 129.877333 0 0 0-0.853334 12.245333c-0.085333 2.048-0.170667 4.138667-0.341333 6.186667-0.085333 0.853333-0.213333 1.621333-0.426667 2.389333a23.637333 23.637333 0 0 0-0.384 2.346667 290.346667 290.346667 0 0 1-6.613333 38.613333c-0.682667 3.114667-1.536 6.101333-2.346667 9.130667l-0.213333 0.64c-3.413333 12.032-7.424 23.509333-12.245333 34.474666l-2.602667 5.461334a230.272 230.272 0 0 1-19.114667 33.408c-1.237333 1.706667-2.517333 3.328-3.84 4.949333l-2.517333 3.2a216.448 216.448 0 0 1-21.888 24.832c-1.578667 1.536-3.328 2.944-5.034667 4.309333l-3.242666 2.645334a215.466667 215.466667 0 0 1-25.898667 19.669333c-2.005333 1.28-4.138667 2.346667-6.272 3.413333-1.408 0.682667-2.773333 1.365333-4.138667 2.133334a226.816 226.816 0 0 1-29.312 14.165333c-2.474667 0.981333-5.12 1.664-7.808 2.346667a106.154667 106.154667 0 0 0-5.632 1.536l-2.730666 0.853333a218.88 218.88 0 0 1-28.501334 7.466667c-5.76 1.024-11.904 1.408-18.005333 1.792a397.312 397.312 0 0 0-7.978667 0.554666c-2.816 0.213333-5.546667 0.554667-8.362666 0.896a110.677333 110.677333 0 0 1-13.824 1.109334H325.845333c-16.042667 0-31.36-1.621333-46.165333-4.053334l-1.578667-0.256c-57.728-9.941333-105.642667-37.802667-139.221333-79.786666-0.213333 0-0.298667-0.170667-0.426667-0.426667a1.962667 1.962667 0 0 0-0.341333-0.426667C104.405333 811.221333 85.333333 754.090667 85.333333 687.018667V336.554667C85.333333 186.112 182.186667 85.333333 325.845333 85.333333h371.882667zM469.333333 363.306667C469.333333 421.12 420.949333 469.333333 362.88 469.333333a107.52 107.52 0 0 1-104.362667-85.589333A102.784 102.784 0 0 1 256 361.344 105.472 105.472 0 0 1 361.770667 256c29.738667 0 56.746667 12.501333 76.032 32.469333 19.370667 19.285333 31.530667 45.866667 31.530666 74.837334z" fill="#200E32" p-id="24019"></path></svg>