<?xml version="1.0" standalone="no"?><!DOCTYPE svg PUBLIC "-//W3C//DTD SVG 1.1//EN" "http://www.w3.org/Graphics/SVG/1.1/DTD/svg11.dtd"><svg t="1672537571969" class="icon" viewBox="0 0 1024 1024" version="1.1" xmlns="http://www.w3.org/2000/svg" p-id="23382" xmlns:xlink="http://www.w3.org/1999/xlink" width="64" height="64"><path d="M85.333333 512C85.333333 276.48 276.053333 85.333333 512 85.333333c235.52 0 426.666667 191.146667 426.666667 426.666667s-191.146667 426.666667-426.666667 426.666667C276.053333 938.666667 85.333333 747.52 85.333333 512z m235.52 51.2c-28.16 0-51.2-23.04-51.2-51.2 0-28.16 23.04-51.2 51.2-51.2 28.16 0 50.773333 23.04 50.773334 51.2 0 28.16-22.613333 51.2-50.773334 51.2zM460.8 512c0 28.16 23.04 51.2 51.2 51.2 28.16 0 50.773333-23.04 50.773333-51.2a50.944 50.944 0 1 0-101.973333 0z m191.146667 0a50.986667 50.986667 0 0 0 101.973333 0 50.944 50.944 0 1 0-101.973333 0z" fill="#200E32" p-id="23383"></path></svg>