<?xml version="1.0" standalone="no"?><!DOCTYPE svg PUBLIC "-//W3C//DTD SVG 1.1//EN" "http://www.w3.org/Graphics/SVG/1.1/DTD/svg11.dtd"><svg t="1672537600022" class="icon" viewBox="0 0 1024 1024" version="1.1" xmlns="http://www.w3.org/2000/svg" p-id="25130" xmlns:xlink="http://www.w3.org/1999/xlink" width="64" height="64"><path d="M327.253333 85.333333h369.92C841.813333 85.333333 938.666667 186.88 938.666667 337.92v348.586667c0 150.613333-96.853333 252.16-241.493334 252.16H327.253333C182.613333 938.666667 85.333333 837.12 85.333333 686.506667V337.92C85.333333 186.88 182.613333 85.333333 327.253333 85.333333z m-6.4 477.866667c-28.16 0-51.2-23.04-51.2-51.2 0-28.16 23.04-51.2 51.2-51.2 28.16 0 51.2 23.04 51.2 51.2 0 28.16-23.04 51.2-51.2 51.2zM460.8 512c0 28.16 23.04 51.2 51.2 51.2 28.16 0 51.2-23.04 51.2-51.2 0-28.16-23.04-51.2-51.2-51.2-28.16 0-51.2 23.04-51.2 51.2z m191.146667 0c0 28.16 23.04 51.2 51.2 51.2 28.16 0 50.773333-23.04 50.773333-51.2a50.944 50.944 0 1 0-101.973333 0z" fill="#200E32" p-id="25131"></path></svg>