<?xml version="1.0" standalone="no"?><!DOCTYPE svg PUBLIC "-//W3C//DTD SVG 1.1//EN" "http://www.w3.org/Graphics/SVG/1.1/DTD/svg11.dtd"><svg t="1672537596085" class="icon" viewBox="0 0 1024 1024" version="1.1" xmlns="http://www.w3.org/2000/svg" p-id="24810" xmlns:xlink="http://www.w3.org/1999/xlink" width="64" height="64"><path d="M535.466667 585.813333h73.045333a31.786667 31.786667 0 0 0 0-63.573333H535.466667v-73.813333c0-17.493333-13.909333-31.573333-31.232-31.573334a31.701333 31.701333 0 0 0-31.701334 31.573334v73.813333H399.829333a31.786667 31.786667 0 0 0 0 63.573333h72.661334v73.813334c0 17.493333 14.378667 31.573333 31.701333 31.573333 17.322667 0 31.232-14.08 31.232-31.573333v-73.813334z m289.621333-200.704c9.941333-0.128 20.736-0.256 30.549333-0.256 10.581333 0 19.029333 8.533333 19.029334 19.2v343.04c0 105.813333-84.906667 191.573333-190.08 191.573334H348.714667C238.933333 938.666667 149.333333 848.64 149.333333 737.706667V277.76C149.333333 171.946667 234.666667 85.333333 339.84 85.333333h225.578667c11.008 0 19.456 8.96 19.456 19.626667v137.386667c0 78.08 63.786667 142.08 141.098666 142.506666 18.048 0 33.962667 0.128 47.914667 0.256 10.837333 0.085333 20.48 0.170667 28.970667 0.170667 5.973333 0 13.781333-0.085333 22.229333-0.170667z m11.605333-62.293333c-34.730667 0.128-75.648 0-105.088-0.298667-46.72 0-85.205333-38.826667-85.205333-86.058666V123.989333c0-18.346667 22.058667-27.52 34.688-14.250666L766.72 199.68l84.48 88.746667a20.352 20.352 0 0 1-14.464 34.432z" fill="#200E32" p-id="24811"></path></svg>