<?xml version="1.0" standalone="no"?><!DOCTYPE svg PUBLIC "-//W3C//DTD SVG 1.1//EN" "http://www.w3.org/Graphics/SVG/1.1/DTD/svg11.dtd"><svg t="1672537661162" class="icon" viewBox="0 0 1024 1024" version="1.1" xmlns="http://www.w3.org/2000/svg" p-id="29098" xmlns:xlink="http://www.w3.org/1999/xlink" width="64" height="64"><path d="M594.986667 549.973333a31.146667 31.146667 0 0 0 44.373333 0 31.530667 31.530667 0 0 0 0.426667-44.8l-121.216-122.88a32.725333 32.725333 0 0 0-21.973334-9.386666 32.768 32.768 0 0 0-22.4 9.386666l-120.832 122.88a31.914667 31.914667 0 0 0 0 44.8 31.146667 31.146667 0 0 0 44.373334 0l67.157333-68.266666v206.08a31.445333 31.445333 0 1 0 62.933333 0v-206.08l67.157334 68.266666z m229.674666-164.864c9.941333-0.128 20.736-0.256 30.592-0.256 10.538667 0 19.413333 8.533333 19.413334 19.2v343.04c0 105.813333-85.333333 191.573333-190.08 191.573334H348.714667C238.506667 938.666667 149.333333 848.64 149.333333 737.706667V277.76C149.333333 171.946667 234.24 85.333333 339.84 85.333333h225.578667c10.581333 0 19.456 8.96 19.456 19.626667v137.386667c0 78.08 63.36 142.08 141.098666 142.506666 17.749333 0 33.536 0.128 47.36 0.256 10.88 0.085333 20.565333 0.170667 29.098667 0.170667 5.973333 0 13.824-0.085333 22.229333-0.170667z m11.818667-62.293333c-34.730667 0.128-75.648 0-105.088-0.298667-46.72 0-85.205333-38.869333-85.205333-86.058666V123.989333c0-18.389333 22.058667-27.52 34.688-14.250666l124.416 130.602666 45.696 48.042667a20.352 20.352 0 0 1-14.506667 34.432z" fill="#200E32" p-id="29099"></path></svg>