<?xml version="1.0" standalone="no"?><!DOCTYPE svg PUBLIC "-//W3C//DTD SVG 1.1//EN" "http://www.w3.org/Graphics/SVG/1.1/DTD/svg11.dtd"><svg t="1672537626046" class="icon" viewBox="0 0 1024 1024" version="1.1" xmlns="http://www.w3.org/2000/svg" p-id="26880" xmlns:xlink="http://www.w3.org/1999/xlink" width="64" height="64"><path d="M312.746667 85.333333h398.08C855.893333 85.333333 938.666667 167.253333 938.666667 312.746667v398.506666c0 144.64-82.346667 227.413333-227.413334 227.413334H312.746667C167.253333 938.666667 85.333333 855.893333 85.333333 711.253333V312.746667C85.333333 167.253333 167.253333 85.333333 312.746667 85.333333z m234.24 462.08h121.173333c19.626667-0.426667 35.413333-16.213333 35.413333-35.84 0-19.626667-15.786667-35.413333-35.413333-35.413333h-121.173333V355.84c0-19.626667-15.786667-35.413333-35.413334-35.413333-19.626667 0-35.413333 15.786667-35.413333 35.413333v120.32H355.413333c-9.386667 0-18.346667 3.84-25.173333 10.24a36.949333 36.949333 0 0 0-10.24 25.173333c0 19.626667 15.786667 35.413333 35.413333 35.84h120.746667v120.746667c0 19.626667 15.786667 35.413333 35.413333 35.413333 19.626667 0 35.413333-15.786667 35.413334-35.413333v-120.746667z" fill="#200E32" p-id="26881"></path></svg>