<?xml version="1.0" standalone="no"?><!DOCTYPE svg PUBLIC "-//W3C//DTD SVG 1.1//EN" "http://www.w3.org/Graphics/SVG/1.1/DTD/svg11.dtd"><svg t="1672537616482" class="icon" viewBox="0 0 1024 1024" version="1.1" xmlns="http://www.w3.org/2000/svg" p-id="26244" xmlns:xlink="http://www.w3.org/1999/xlink" width="64" height="64"><path d="M819.242667 184.704a76.8 76.8 0 0 1 53.248 72.405333l2.133333 283.221334a351.786667 351.786667 0 0 1-88.405333 234.325333c-26.197333 30.122667-60.16 55.637333-103.082667 78.677333l-152.448 81.578667a31.957333 31.957333 0 0 1-15.018667 3.754667 33.664 33.664 0 0 1-15.488-3.754667L346.453333 855.424c-43.349333-22.613333-77.312-47.701333-103.936-77.397333a350.890667 350.890667 0 0 1-91.434666-233.472l-1.706667-283.306667c-0.426667-32.64 20.992-61.866667 52.352-72.789333l282.154667-98.688a79.786667 79.786667 0 0 1 52.394666 0L819.2 184.704z m-203.946667 416.341333a30.976 30.976 0 0 0 0-44.373333l-58.026667-56.533333 58.026667-56.405334a31.018667 31.018667 0 0 0 0-44.373333 33.024 33.024 0 0 0-45.525333 0l-57.984 56.490667-57.984-56.533334a33.024 33.024 0 0 0-45.525334 0 31.018667 31.018667 0 0 0 0 44.373334l58.026667 56.448-58.026667 56.533333a30.976 30.976 0 0 0 0 44.373333 32.256 32.256 0 0 0 22.784 9.130667 30.848 30.848 0 0 0 22.741334-9.130667l57.984-56.490666 57.984 56.490666c6.4 6.272 14.592 9.130667 22.741333 9.130667a31.530667 31.530667 0 0 0 22.784-9.130667z" fill="#200E32" p-id="26245"></path></svg>