<?xml version="1.0" standalone="no"?><!DOCTYPE svg PUBLIC "-//W3C//DTD SVG 1.1//EN" "http://www.w3.org/Graphics/SVG/1.1/DTD/svg11.dtd"><svg t="1672537665939" class="icon" viewBox="0 0 1024 1024" version="1.1" xmlns="http://www.w3.org/2000/svg" p-id="29416" xmlns:xlink="http://www.w3.org/1999/xlink" width="64" height="64"><path d="M345.514667 512c0 91.008 74.496 165.12 166.485333 165.12 91.562667 0 166.101333-74.112 166.101333-165.12A165.888 165.888 0 0 0 512 346.496c-91.989333 0-166.485333 74.069333-166.485333 165.504z m411.264-254.037333c72.832 56.277333 134.826667 138.624 179.413333 241.621333a31.104 31.104 0 0 1 0 24.405333C847.104 730.069333 688.512 853.333333 512 853.333333h-0.426667c-176.085333 0-334.677333-123.306667-423.722666-329.344a31.061333 31.061333 0 0 1 0-24.405333C176.896 293.546667 335.488 170.666667 511.573333 170.666667H512c88.234667 0 171.946667 30.634667 244.778667 87.296zM512 614.912a103.594667 103.594667 0 0 0 103.68-102.997333A103.68 103.68 0 0 0 512 408.490667c-4.992 0-9.984 0.426667-14.549333 1.237333a85.205333 85.205333 0 0 1-85.333334 81.92h-2.133333c-1.194667 6.613333-2.048 13.226667-2.048 20.266667 0 56.661333 46.634667 102.997333 104.106667 102.997333z" fill="#200E32" p-id="29417"></path></svg>