<?xml version="1.0" standalone="no"?><!DOCTYPE svg PUBLIC "-//W3C//DTD SVG 1.1//EN" "http://www.w3.org/Graphics/SVG/1.1/DTD/svg11.dtd"><svg t="1672537602041" class="icon" viewBox="0 0 1024 1024" version="1.1" xmlns="http://www.w3.org/2000/svg" p-id="25288" xmlns:xlink="http://www.w3.org/1999/xlink" width="64" height="64"><path d="M321.962667 139.861333c7.082667 5.12 18.517333 16.853333 18.517333 16.853334 44.373333 41.642667 111.274667 145.066667 132.736 197.589333 0.426667 0 13.226667 31.232 13.653333 46.08v1.962667c0 22.784-12.714667 44.074667-33.152 54.954666-8.448 4.48-29.013333 8.661333-38.912 10.666667-3.242667 0.682667-5.376 1.109333-5.504 1.237333-29.269333 4.48-74.154667 7.381333-123.434666 7.381334-51.712 0-98.56-2.901333-127.36-8.405334-0.512 0-26.837333-5.418667-35.626667-8.917333a63.573333 63.573333 0 0 1-30.293333-27.733333 69.418667 69.418667 0 0 1-7.253334-31.146667c0.426667-11.392 7.808-32.682667 11.178667-41.088 21.461333-55.466667 91.733333-161.450667 134.698667-202.069333 4.437333-4.522667 9.514667-9.258667 13.056-12.544 1.877333-1.792 3.328-3.114667 4.010666-3.84 10.709333-8.362667 23.893333-12.842667 38.101334-12.842667 12.629333 0 25.301333 3.968 35.584 11.861333z m455.808 293.717334a40.106667 40.106667 0 0 1-39.850667 40.448 40.106667 40.106667 0 0 1-39.850667-40.448l-11.008-195.413334a51.2 51.2 0 0 1 50.858667-51.498666c28.032 0 50.773333 23.04 50.773333 51.541333l-10.922666 195.370667z m123.306666 131.157333c12.714667 5.461333 23.466667 15.36 30.293334 27.733333 4.906667 9.813333 7.296 20.309333 7.296 31.189334-0.426667 11.349333-7.808 32.682667-11.221334 41.088-21.418667 55.466667-91.733333 161.408-134.613333 202.069333-4.394667 4.394667-9.386667 9.045333-12.928 12.373333l-4.181333 3.925334c-10.794667 8.405333-23.893333 12.885333-38.058667 12.885333a58.026667 58.026667 0 0 1-35.626667-11.946667c-7.082667-5.034667-18.517333-16.768-18.517333-16.768-44.458667-41.557333-111.274667-145.109333-132.736-197.632-0.512 0-13.226667-31.146667-13.653333-45.994666v-1.962667c0-22.826667 12.629333-44.117333 33.152-55.04 8.448-4.394667 28.928-8.576 38.826666-10.666667 3.328-0.64 5.461333-1.066667 5.546667-1.194666 29.312-4.48 74.197333-7.424 123.477333-7.424 51.712 0 98.56 2.986667 127.36 8.405333 0.469333 0 26.837333 5.461333 35.626667 8.96zM286.165333 549.973333a40.106667 40.106667 0 0 0-39.850666 40.448l-11.008 195.413334a51.2 51.2 0 0 0 50.858666 51.498666c28.032 0 50.773333-23.04 50.773334-51.541333l-10.965334-195.370667a40.106667 40.106667 0 0 0-39.808-40.405333z" fill="#200E32" p-id="25289"></path></svg>