<?xml version="1.0" standalone="no"?><!DOCTYPE svg PUBLIC "-//W3C//DTD SVG 1.1//EN" "http://www.w3.org/Graphics/SVG/1.1/DTD/svg11.dtd"><svg t="1672537641583" class="icon" viewBox="0 0 1024 1024" version="1.1" xmlns="http://www.w3.org/2000/svg" p-id="27830" xmlns:xlink="http://www.w3.org/1999/xlink" width="64" height="64"><path d="M843.136 512.042667c0 34.730667 28.501333 62.933333 63.530667 62.933333 17.664 0 32 14.208 32 31.701333v114.218667C938.666667 817.450667 859.392 896 761.941333 896H262.101333C164.650667 896 85.333333 817.450667 85.333333 720.896v-114.218667c0-17.493333 14.336-31.701333 32-31.701333 35.072 0 63.573333-28.245333 63.573334-62.933333 0-33.834667-27.349333-59.306667-63.573334-59.306667a32.085333 32.085333 0 0 1-22.613333-9.258667 31.573333 31.573333 0 0 1-9.386667-22.4l0.085334-117.930666C85.418667 206.592 164.693333 128 262.144 128h499.712c97.450667 0 176.768 78.592 176.768 175.146667L938.666667 417.365333a31.616 31.616 0 0 1-9.344 22.442667 32.128 32.128 0 0 1-22.656 9.301333c-35.029333 0-63.530667 28.245333-63.530667 62.933334z m-235.050667 27.605333l50.304-48.512a31.146667 31.146667 0 1 0-17.450666-53.333333l-69.504-10.069334-31.104-62.378666a31.445333 31.445333 0 0 0-28.245334-17.493334H512a31.573333 31.573333 0 0 0-28.288 17.450667l-31.104 62.421333-69.376 10.026667a31.36 31.36 0 0 0-25.6 21.248 30.890667 30.890667 0 0 0 7.978667 32.128l50.304 48.512-11.861334 68.608a31.018667 31.018667 0 0 0 12.586667 30.677333 31.658667 31.658667 0 0 0 33.152 2.304L512 608.853333l62.08 32.298667a31.274667 31.274667 0 0 0 33.28-2.261333 30.848 30.848 0 0 0 12.629333-30.634667l-11.904-68.608z" fill="#200E32" p-id="27831"></path></svg>