<?xml version="1.0" standalone="no"?><!DOCTYPE svg PUBLIC "-//W3C//DTD SVG 1.1//EN" "http://www.w3.org/Graphics/SVG/1.1/DTD/svg11.dtd"><svg t="1672537620925" class="icon" viewBox="0 0 1024 1024" version="1.1" xmlns="http://www.w3.org/2000/svg" p-id="26564" xmlns:xlink="http://www.w3.org/1999/xlink" width="64" height="64"><path d="M327.253333 85.333333h369.92C841.813333 85.333333 938.666667 186.88 938.666667 337.92v348.586667c0 150.613333-96.853333 252.16-241.493334 252.16H327.253333C182.613333 938.666667 85.333333 837.12 85.333333 686.506667V337.92C85.333333 186.88 182.613333 85.333333 327.253333 85.333333z m337.493334 589.226667c10.666667 0 21.333333-5.546667 27.306666-15.786667a31.744 31.744 0 0 0-11.093333-43.946666l-151.893333-90.453334V327.253333a32 32 0 1 0-64 0v215.466667c0 11.093333 5.973333 21.76 15.786666 27.306667l167.253334 99.84c5.12 3.413333 11.093333 4.693333 16.64 4.693333z" fill="#200E32" p-id="26565"></path></svg>