<?xml version="1.0" standalone="no"?><!DOCTYPE svg PUBLIC "-//W3C//DTD SVG 1.1//EN" "http://www.w3.org/Graphics/SVG/1.1/DTD/svg11.dtd"><svg t="1672537645856" class="icon" viewBox="0 0 1024 1024" version="1.1" xmlns="http://www.w3.org/2000/svg" p-id="28148" xmlns:xlink="http://www.w3.org/1999/xlink" width="64" height="64"><path d="M361.216 223.402667A32.597333 32.597333 0 0 0 364.8 266.24c12.8 12.8 33.706667 12.8 46.506667 0l67.84-68.266667v176.64h65.706666V197.973333l67.84 68.266667 3.669334 3.157333a32.981333 32.981333 0 0 0 52.650666-26.624c0-8.106667-3.413333-16.64-9.813333-23.04l-124.16-124.586666-3.84-3.498667a32.597333 32.597333 0 0 0-42.666667 3.498667L364.373333 219.733333l-3.157333 3.669334zM265.813333 374.869333C165.461333 379.52 85.333333 464 85.333333 566.912v211.84l0.213334 9.045333c4.693333 102.186667 87.68 184.106667 189.653333 184.106667h474.026667l8.917333-0.213333c100.394667-4.693333 180.522667-89.173333 180.522667-192.512v-211.413334l-0.213334-9.088c-4.693333-102.570667-88.106667-184.106667-189.653333-184.106666h-203.946667v260.48l-0.298666 4.565333a33.066667 33.066667 0 0 1-32.554667 28.842667 32.853333 32.853333 0 0 1-32.853333-33.408V374.613333H274.773333l-8.917333 0.213334z" fill="#200E32" p-id="28149"></path></svg>