<?xml version="1.0" standalone="no"?><!DOCTYPE svg PUBLIC "-//W3C//DTD SVG 1.1//EN" "http://www.w3.org/Graphics/SVG/1.1/DTD/svg11.dtd"><svg t="1672537629089" class="icon" viewBox="0 0 1024 1024" version="1.1" xmlns="http://www.w3.org/2000/svg" p-id="27040" xmlns:xlink="http://www.w3.org/1999/xlink" width="64" height="64"><path d="M519.466667 649.216h-14.933334c-102.528 0-185.642667-82.048-185.642666-183.296V268.672C318.890667 167.424 402.005333 85.333333 504.533333 85.333333h14.933334a185.386667 185.386667 0 0 1 178.773333 133.589334 16.554667 16.554667 0 0 1-16.042667 21.077333h-48.341333a26.282667 26.282667 0 0 0-26.453333 26.026667v0.085333c0 14.421333 11.861333 26.112 26.453333 26.112H678.4c14.762667 0 26.752 11.818667 26.752 26.368 0 14.592-11.946667 26.368-26.752 26.368h-44.544a26.325333 26.325333 0 0 0-26.453333 26.154667c0 14.421333 11.861333 26.112 26.453333 26.112H678.4c14.762667 0 26.752 11.818667 26.752 26.453333 0 14.506667-11.946667 26.282667-26.752 26.282667h-44.544a26.325333 26.325333 0 0 0-26.453333 26.197333c0 14.378667 11.861333 26.026667 26.453333 26.026667h45.952c11.349333 0 19.456 10.965333 15.872 21.589333a185.472 185.472 0 0 1-176.213333 125.44z m272.554666-189.141333c0-22.613333 18.517333-40.832 41.301334-40.832 22.826667 0 41.344 18.261333 41.344 40.832 0 183.637333-140.8 335.232-321.28 355.626666v82.133334A41.088 41.088 0 0 1 512 938.666667a41.045333 41.045333 0 0 1-41.301333-40.832v-82.133334C290.090667 795.306667 149.333333 643.712 149.333333 460.074667c0-22.613333 18.517333-40.832 41.344-40.832 22.784 0 41.301333 18.261333 41.301334 40.832 0 152.448 125.610667 276.48 280.064 276.48 154.368 0 279.978667-124.032 279.978666-276.48z" fill="#200E32" p-id="27041"></path></svg>