<?xml version="1.0" standalone="no"?><!DOCTYPE svg PUBLIC "-//W3C//DTD SVG 1.1//EN" "http://www.w3.org/Graphics/SVG/1.1/DTD/svg11.dtd"><svg t="1672537668285" class="icon" viewBox="0 0 1024 1024" version="1.1" xmlns="http://www.w3.org/2000/svg" p-id="29576" xmlns:xlink="http://www.w3.org/1999/xlink" width="64" height="64"><path d="M758.144 357.632H938.666667C938.666667 212.693333 851.797333 128 704.682667 128H319.317333C172.202667 128 85.333333 212.693333 85.333333 355.754667v312.490666C85.333333 811.306667 172.202667 896 319.317333 896h385.365334C851.797333 896 938.666667 811.306667 938.666667 668.245333v-13.354666h-180.522667c-83.797333 0-151.722667-66.218667-151.722667-147.882667 0-81.706667 67.925333-147.925333 151.722667-147.925333v-1.450667z m0 63.573333h148.650667c17.621333 0 31.872 13.909333 31.872 31.061334v107.989333a31.829333 31.829333 0 0 1-31.872 31.061333H761.6c-42.410667 0.554667-79.530667-27.733333-89.130667-68.053333a84.565333 84.565333 0 0 1 18.474667-70.485333 89.216 89.216 0 0 1 67.242667-31.573334z m6.442667 113.536h14.037333a32.213333 32.213333 0 0 0 32.597333-31.786666 32.213333 32.213333 0 0 0-32.597333-31.829334h-14.037333a32.682667 32.682667 0 0 0-23.04 9.088 31.018667 31.018667 0 0 0-9.557334 22.357334c0 17.621333 14.506667 32 32.597334 32.170666zM287.488 357.632h240.810667a32.213333 32.213333 0 0 0 32.64-31.829333 32.213333 32.213333 0 0 0-32.64-31.786667H287.488a32.213333 32.213333 0 0 0-32.64 31.445333c0 17.621333 14.549333 32 32.64 32.170667z" fill="#200E32" p-id="29577"></path></svg>