<?xml version="1.0" standalone="no"?><!DOCTYPE svg PUBLIC "-//W3C//DTD SVG 1.1//EN" "http://www.w3.org/Graphics/SVG/1.1/DTD/svg11.dtd"><svg t="1674969668741" class="icon" viewBox="0 0 1024 1024" version="1.1" xmlns="http://www.w3.org/2000/svg" p-id="8176" xmlns:xlink="http://www.w3.org/1999/xlink" width="64" height="64"><path d="M929.2 304.2c0-93-75.6-168.6-168.6-168.6H263.4c-93 0-168.6 75.6-168.6 168.6v415.6c0 93 75.6 168.6 168.6 168.6h497.2c93 0 168.6-75.6 168.6-168.6V304.2zM760.6 778.4H263.4c-32.3 0-58.6-26.3-58.6-58.6V304.2c0-32.3 26.3-58.6 58.6-58.6h497.2c32.3 0 58.6 26.3 58.6 58.6v415.6c0 32.3-26.3 58.6-58.6 58.6z" p-id="8177" fill="#ffffff"></path><path d="M468.6 338.2v129.1c0 23.6-19.2 42.8-42.8 42.8H296.7c-37.3 0-55.9-45.1-29.6-71.4l130-130c26.4-26.5 71.5-7.8 71.5 29.5zM555.4 681.8v-129c0-23.6 19.2-42.8 42.8-42.8h129.1c37.3 0 55.9 45.1 29.6 71.4l-130 130c-26.5 26.4-71.5 7.7-71.5-29.6z" p-id="8178" fill="#ffffff"></path></svg>