<?xml version="1.0" standalone="no"?><!DOCTYPE svg PUBLIC "-//W3C//DTD SVG 1.1//EN" "http://www.w3.org/Graphics/SVG/1.1/DTD/svg11.dtd"><svg t="1674969640456" class="icon" viewBox="0 0 1024 1024" version="1.1" xmlns="http://www.w3.org/2000/svg" p-id="6709" xmlns:xlink="http://www.w3.org/1999/xlink" width="64" height="64"><path d="M297.31 470.69H186.24c-30.38 0-55-24.62-55-55s24.62-55 55-55h111.08c32.31 0 58.6-26.29 58.6-58.6V191.02c0-30.38 24.62-55 55-55s55 24.62 55 55V302.1c-0.01 92.96-75.64 168.59-168.61 168.59zM837.27 470.69H726.2c-92.96 0-168.6-75.63-168.6-168.6V191.02c0-30.38 24.62-55 55-55s55 24.62 55 55V302.1c0 32.31 26.29 58.6 58.6 58.6h111.08c30.38 0 55 24.62 55 55s-24.63 54.99-55.01 54.99zM612.6 888.76c-30.38 0-55-24.62-55-55V722.68c0-92.96 75.63-168.6 168.6-168.6h111.08c30.38 0 55 24.62 55 55s-24.62 55-55 55H726.2c-32.31 0-58.6 26.29-58.6 58.6v111.08c0 30.37-24.62 55-55 55zM410.91 888.76c-30.38 0-55-24.62-55-55V722.68c0-32.31-26.29-58.6-58.6-58.6H186.24c-30.38 0-55-24.62-55-55s24.62-55 55-55h111.08c92.96 0 168.6 75.63 168.6 168.6v111.08c-0.01 30.37-24.63 55-55.01 55z" p-id="6710" fill="#ffffff"></path></svg>