<?xml version="1.0" standalone="no"?><!DOCTYPE svg PUBLIC "-//W3C//DTD SVG 1.1//EN" "http://www.w3.org/Graphics/SVG/1.1/DTD/svg11.dtd"><svg t="1674969643903" class="icon" viewBox="0 0 1024 1024" version="1.1" xmlns="http://www.w3.org/2000/svg" p-id="6915" xmlns:xlink="http://www.w3.org/1999/xlink" width="64" height="64"><path d="M186.24 470.69c-30.38 0-55-24.62-55-55V304.61c0-92.96 75.63-168.6 168.6-168.6h111.08c30.38 0 55 24.62 55 55s-24.62 55-55 55H299.83c-32.31 0-58.6 26.29-58.6 58.6v111.08c0.01 30.38-24.62 55-54.99 55zM837.27 470.69c-30.38 0-55-24.62-55-55V304.61c0-32.31-26.29-58.6-58.6-58.6H612.6c-30.38 0-55-24.62-55-55s24.62-55 55-55h111.08c92.96 0 168.6 75.63 168.6 168.6v111.08c-0.01 30.38-24.63 55-55.01 55zM723.68 888.76H612.6c-30.38 0-55-24.62-55-55s24.62-55 55-55h111.08c32.31 0 58.6-26.29 58.6-58.6V609.08c0-30.38 24.62-55 55-55s55 24.62 55 55v111.08c-0.01 92.97-75.64 168.6-168.6 168.6zM410.91 888.76H299.83c-92.96 0-168.6-75.63-168.6-168.6V609.08c0-30.38 24.62-55 55-55s55 24.62 55 55v111.08c0 32.31 26.29 58.6 58.6 58.6h111.08c30.38 0 55 24.62 55 55s-24.62 55-55 55z" p-id="6916" fill="#ffffff"></path></svg>