<?xml version="1.0" standalone="no"?><!DOCTYPE svg PUBLIC "-//W3C//DTD SVG 1.1//EN" "http://www.w3.org/Graphics/SVG/1.1/DTD/svg11.dtd"><svg t="1674969653008" class="icon" viewBox="0 0 1024 1024" version="1.1" xmlns="http://www.w3.org/2000/svg" p-id="7335" xmlns:xlink="http://www.w3.org/1999/xlink" width="64" height="64"><path d="M516.75 163.97c-43.12-18.09-90.93-8.71-124.82 24.48l-89.38 86.95h-54.93c-44.86 0-86.86 18.51-118.26 52.13-30.58 32.74-47.42 76.04-47.42 121.94v125.86c0 45.9 16.84 89.2 47.42 121.94 31.4 33.62 73.4 52.13 118.26 52.13h54.93l89.38 86.95c22.48 22.01 51.07 33.55 80.36 33.55 14.88 0 29.94-2.98 44.46-9.07 21.5-9.02 39.81-24.12 52.94-43.65 13.78-20.5 21.06-44.89 21.06-70.52V278.14c0-25.64-7.28-50.02-21.06-70.52-13.13-19.54-31.44-34.63-52.94-43.65zM836.85 512.39l95.6-158.79c12.82-21.29 5.95-48.94-15.34-61.76s-48.94-5.95-61.76 15.34l-71.02 117.96-71.02-117.96c-12.82-21.29-40.47-28.16-61.76-15.34s-28.16 40.47-15.34 61.76l95.6 158.79-95.6 158.79c-12.82 21.29-5.95 48.94 15.34 61.76a44.79 44.79 0 0 0 23.17 6.45c15.26 0 30.15-7.77 38.6-21.8l71.02-117.96 71.02 117.96c8.45 14.03 23.33 21.8 38.6 21.8 7.9 0 15.91-2.08 23.17-6.45 21.29-12.82 28.16-40.47 15.34-61.76l-95.62-158.79z" p-id="7336" fill="#ffffff"></path></svg>