<?xml version="1.0" standalone="no"?><!DOCTYPE svg PUBLIC "-//W3C//DTD SVG 1.1//EN" "http://www.w3.org/Graphics/SVG/1.1/DTD/svg11.dtd"><svg t="1674969591595" class="icon" viewBox="0 0 1024 1024" version="1.1" xmlns="http://www.w3.org/2000/svg" p-id="4340" xmlns:xlink="http://www.w3.org/1999/xlink" width="64" height="64"><path d="M327.253333 85.333333h369.92C841.813333 85.333333 938.666667 186.88 938.666667 337.92v348.586667c0 150.613333-96.853333 252.16-241.493334 252.16H327.253333C182.613333 938.666667 85.333333 837.12 85.333333 686.506667V337.92C85.333333 186.88 182.613333 85.333333 327.253333 85.333333z m184.32 301.226667a37.12 37.12 0 0 1-36.693333-37.12 37.333333 37.333333 0 1 1 36.693333 37.12z m37.546667 286.72c0 20.48-16.64 37.12-37.546667 37.12a37.12 37.12 0 0 1-37.12-37.12v-188.586667c0-20.48 16.64-37.546667 37.12-37.546666 20.906667 0 37.546667 17.066667 37.546667 37.546666v188.586667z" fill="#ffffff" p-id="4341"></path></svg>