<?xml version="1.0" standalone="no"?><!DOCTYPE svg PUBLIC "-//W3C//DTD SVG 1.1//EN" "http://www.w3.org/Graphics/SVG/1.1/DTD/svg11.dtd"><svg t="1672537455309" class="icon" viewBox="0 0 1024 1024" version="1.1" xmlns="http://www.w3.org/2000/svg" p-id="17028" xmlns:xlink="http://www.w3.org/1999/xlink" width="64" height="64"><path d="M512 85.333333c235.52 0 426.666667 191.573333 426.666667 426.666667l-0.170667 11.946667C932.181333 753.92 743.509333 938.666667 512 938.666667 276.906667 938.666667 85.333333 747.52 85.333333 512 85.333333 276.906667 276.906667 85.333333 512 85.333333zM341.333333 596.48c12.8 12.373333 32.853333 12.373333 45.226667-0.426667L512 470.186667l125.44 125.866666c12.373333 12.8 32.853333 12.8 45.226667 0.426667 12.8-12.8 12.8-32.853333 0-45.226667l-148.053334-148.906666a32 32 0 0 0-45.226666 0L341.333333 551.253333c-6.4 5.973333-9.386667 14.08-9.386666 22.186667 0 8.533333 2.986667 16.64 9.386666 23.04z" fill="#200E32" p-id="17029"></path></svg>