<?xml version="1.0" standalone="no"?><!DOCTYPE svg PUBLIC "-//W3C//DTD SVG 1.1//EN" "http://www.w3.org/Graphics/SVG/1.1/DTD/svg11.dtd"><svg t="1672537378589" class="icon" viewBox="0 0 1024 1024" version="1.1" xmlns="http://www.w3.org/2000/svg" p-id="15774" xmlns:xlink="http://www.w3.org/1999/xlink" width="64" height="64"><path d="M314.453333 463.744c2.389333-2.474667 11.52-13.056 19.968-21.76 49.706667-54.741333 179.370667-144.341333 247.253334-171.690667 10.325333-4.394667 36.394667-13.696 50.304-14.293333 13.354667 0 26.026667 3.072 38.186666 9.301333 15.146667 8.704 27.306667 22.4 33.92 38.570667 4.266667 11.221333 10.922667 44.8 10.922667 45.397333 6.656 36.736 10.325333 96.426667 10.325333 162.389334 0 62.848-3.669333 120.106667-9.088 157.397333-0.64 0.597333-7.253333 42.325333-14.549333 56.618667a76.16 76.16 0 0 1-67.328 42.325333h-2.389333c-18.176-0.64-56.362667-16.853333-56.362667-17.450667-64.213333-27.392-190.890667-112.597333-241.834667-169.216 0 0-14.336-14.549333-20.565333-23.637333A76.074667 76.074667 0 0 1 298.666667 512.298667c0-18.048 5.461333-34.858667 15.786666-48.554667z" fill="#200E32" p-id="15775"></path></svg>