<?xml version="1.0" standalone="no"?><!DOCTYPE svg PUBLIC "-//W3C//DTD SVG 1.1//EN" "http://www.w3.org/Graphics/SVG/1.1/DTD/svg11.dtd"><svg t="1672537375710" class="icon" viewBox="0 0 1024 1024" version="1.1" xmlns="http://www.w3.org/2000/svg" p-id="15616" xmlns:xlink="http://www.w3.org/1999/xlink" width="64" height="64"><path d="M686.08 938.666667H337.493333C186.88 938.666667 85.333333 841.770667 85.333333 697.173333V327.253333C85.333333 182.613333 186.88 85.333333 337.493333 85.333333h348.586667C837.12 85.333333 938.666667 182.613333 938.666667 327.253333v369.92c0 144.597333-101.546667 241.493333-252.586667 241.493334z m-77.226667-458.666667H337.92c-17.92 0-32 14.506667-32 32 0 17.92 14.08 32 32 32h270.933333l-105.813333 105.386667c-5.973333 5.973333-9.386667 14.506667-9.386667 22.613333 0 8.064 3.413333 16.213333 9.386667 22.613333 12.373333 12.373333 32.853333 12.373333 45.226667 0l160.853333-160c11.946667-11.946667 11.946667-33.28 0-45.226666l-160.853333-160a32.170667 32.170667 0 0 0-45.226667 0c-12.373333 12.8-12.373333 32.853333 0 45.653333l105.813333 104.96z" fill="#200E32" p-id="15617"></path></svg>