<?xml version="1.0" standalone="no"?><!DOCTYPE svg PUBLIC "-//W3C//DTD SVG 1.1//EN" "http://www.w3.org/Graphics/SVG/1.1/DTD/svg11.dtd"><svg t="1672537470604" class="icon" viewBox="0 0 1024 1024" version="1.1" xmlns="http://www.w3.org/2000/svg" p-id="17978" xmlns:xlink="http://www.w3.org/1999/xlink" width="64" height="64"><path d="M512.298667 561.706667l15.104-0.085334c59.904-0.512 113.365333-4.096 147.242666-10.325333 0.64 0 34.218667-6.826667 45.397334-11.136 16.213333-6.826667 29.909333-19.072 38.613333-34.517333a85.333333 85.333333 0 0 0 9.344-38.826667c-0.512-10.624-5.845333-28.16-10.325333-40.704l-4.010667-10.410667c-27.392-68.992-116.906667-200.832-171.690667-251.349333l-3.84-3.712-17.92-16.64A79.189333 79.189333 0 0 0 511.658667 128c-16.170667 0-32.341333 4.949333-45.397334 14.805333-4.224 2.986667-9.642667 7.68-14.250666 11.946667l-16.938667 16.170667C378.709333 226.56 299.605333 347.093333 273.365333 409.557333c-0.554667 0-16.768 38.826667-17.365333 57.301334v2.432c0 28.373333 16.170667 54.869333 42.282667 68.394666 7.168 3.712 21.162667 7.253333 33.450666 9.941334l23.210667 4.864c37.290667 5.546667 94.549333 9.216 157.354667 9.216z m-65.066667 270.165333c0 35.413333 29.013333 64.128 64.768 64.128a64.426667 64.426667 0 0 0 64.768-64.128l-13.994667-157.866667c0-27.733333-22.698667-50.304-50.773333-50.304-28.074667 0-50.816 22.528-50.816 50.346667l-13.952 157.824z" fill="#200E32" p-id="17979"></path></svg>