<?xml version="1.0" standalone="no"?><!DOCTYPE svg PUBLIC "-//W3C//DTD SVG 1.1//EN" "http://www.w3.org/Graphics/SVG/1.1/DTD/svg11.dtd"><svg t="1672537465036" class="icon" viewBox="0 0 1024 1024" version="1.1" xmlns="http://www.w3.org/2000/svg" p-id="17664" xmlns:xlink="http://www.w3.org/1999/xlink" width="64" height="64"><path d="M281.173333 505.941333c5.376 9.984 15.616 16.213333 26.752 16.213334h173.482667v342.528c0 17.28 13.696 31.317333 30.592 31.317333a30.976 30.976 0 0 0 30.592-31.317333v-342.528h173.482667a30.421333 30.421333 0 0 0 26.752-16.213334 31.914667 31.914667 0 0 0-0.853334-31.786666l-204.074666-331.52A30.464 30.464 0 0 0 512 128a30.464 30.464 0 0 0-25.898667 14.634667l-204.074666 331.52a32.170667 32.170667 0 0 0-0.853334 31.786666z" fill="#200E32" p-id="17665"></path></svg>