<?xml version="1.0" standalone="no"?><!DOCTYPE svg PUBLIC "-//W3C//DTD SVG 1.1//EN" "http://www.w3.org/Graphics/SVG/1.1/DTD/svg11.dtd"><svg t="1672537356877" class="icon" viewBox="0 0 1024 1024" version="1.1" xmlns="http://www.w3.org/2000/svg" p-id="14502" xmlns:xlink="http://www.w3.org/1999/xlink" width="64" height="64"><path d="M505.941333 742.826667a30.506667 30.506667 0 0 0 16.213334-26.752v-173.482667h342.528A30.976 30.976 0 0 0 896 512a30.976 30.976 0 0 0-31.317333-30.592h-342.528V307.925333a30.378667 30.378667 0 0 0-16.213334-26.752 31.914667 31.914667 0 0 0-31.786666 0.853334l-331.52 204.074666A30.464 30.464 0 0 0 128 512c0 10.538667 5.546667 20.266667 14.634667 25.898667l331.52 204.074666a32.170667 32.170667 0 0 0 31.786666 0.853334z" fill="#200E32" p-id="14503"></path></svg>