<?xml version="1.0" standalone="no"?><!DOCTYPE svg PUBLIC "-//W3C//DTD SVG 1.1//EN" "http://www.w3.org/Graphics/SVG/1.1/DTD/svg11.dtd"><svg t="1672537452496" class="icon" viewBox="0 0 1024 1024" version="1.1" xmlns="http://www.w3.org/2000/svg" p-id="16872" xmlns:xlink="http://www.w3.org/1999/xlink" width="64" height="64"><path d="M447.232 192.128l13.994667 157.866667c0 27.733333 22.698667 50.304 50.773333 50.304 28.074667 0 50.816-22.528 50.816-50.346667l13.952-157.824C576.768 156.714667 547.754667 128 512 128a64.426667 64.426667 0 0 0-64.768 64.128z m11.434667 683.136c2.389333 2.176 4.266667 3.84 5.12 4.693333 13.738667 10.496 30.506667 16.042667 48.554666 16.042667 16.170667 0 32.341333-4.949333 45.397334-14.805333 9.045333-6.314667 23.637333-20.906667 23.637333-20.906667 56.618667-51.797333 141.824-180.522667 169.216-245.845333 0.597333 0 16.810667-38.826667 17.408-57.301334v-2.432c0-28.373333-16.170667-54.869333-42.282667-68.394666-10.837333-5.589333-37.290667-10.837333-49.834666-13.354667a73.514667 73.514667 0 0 1-6.826667-1.450667c-37.290667-5.546667-94.549333-9.216-157.354667-9.216-65.962667 0-125.653333 3.669333-162.346666 10.410667-0.64 0-34.218667 6.826667-45.397334 11.136-16.213333 6.826667-29.909333 19.072-38.613333 34.517333a85.333333 85.333333 0 0 0-9.344 38.826667c0.64 14.165333 9.984 40.661333 14.336 51.114667 27.392 68.992 116.906667 200.832 171.690667 251.349333 5.674667 5.632 12.16 11.52 16.64 15.616z" fill="#200E32" p-id="16873"></path></svg>