<?xml version="1.0" standalone="no"?><!DOCTYPE svg PUBLIC "-//W3C//DTD SVG 1.1//EN" "http://www.w3.org/Graphics/SVG/1.1/DTD/svg11.dtd"><svg t="1672537458345" class="icon" viewBox="0 0 1024 1024" version="1.1" xmlns="http://www.w3.org/2000/svg" p-id="17188" xmlns:xlink="http://www.w3.org/1999/xlink" width="64" height="64"><path d="M700.501333 276.053333h8.746667c114.858667 0 208.085333 96 208.085333 213.76V725.333333c0 117.76-93.226667 213.333333-208.085333 213.333334H314.752C199.893333 938.666667 106.666667 843.093333 106.666667 725.333333v-235.52c0-117.76 93.226667-213.76 208.085333-213.76h8.746667c0.853333-51.2 20.394667-98.986667 55.765333-134.826666 35.754667-36.266667 81.536-54.613333 133.12-55.893334 103.253333 0 186.88 85.333333 188.16 190.72zM422.954667 186.88c-23.296 23.893333-36.224 55.466667-37.034667 89.173333h252.16C636.842667 206.08 581.12 149.333333 512.426667 149.333333c-32.042667 0-65.365333 13.226667-89.472 37.546667z m247.168 253.44a31.573333 31.573333 0 0 0 31.232-32V358.826667a31.573333 31.573333 0 0 0-31.232-32c-17.066667 0-31.189333 14.506667-31.189334 32v49.493333c0 17.493333 14.165333 32 31.189334 32z m-288.810667-32a31.573333 31.573333 0 0 1-31.189333 32c-17.066667 0-31.232-14.506667-31.232-32V358.826667c0-17.493333 14.165333-32 31.232-32 17.493333 0 31.189333 14.506667 31.189333 32v49.493333z" fill="#200E32" p-id="17189"></path></svg>