<?xml version="1.0" standalone="no"?><!DOCTYPE svg PUBLIC "-//W3C//DTD SVG 1.1//EN" "http://www.w3.org/Graphics/SVG/1.1/DTD/svg11.dtd"><svg t="1672537472918" class="icon" viewBox="0 0 1024 1024" version="1.1" xmlns="http://www.w3.org/2000/svg" p-id="18136" xmlns:xlink="http://www.w3.org/1999/xlink" width="64" height="64"><path d="M722.346667 298.666667a21.418667 21.418667 0 0 0 1.877333-9.642667H725.333333A212.992 212.992 0 0 0 512.213333 85.333333 212.992 212.992 0 0 0 299.093333 289.024a27.690667 27.690667 0 0 0 0 9.642667h-3.328c-54.698667 0-113.152 36.096-130.133333 133.12l-33.152 264.32C105.344 890.154667 205.226667 938.666667 335.744 938.666667h353.706667c130.090667 0 226.986667-70.229333 202.837333-242.56l-32.810667-264.32C839.509333 337.493333 782.933333 298.666667 729.045333 298.666667h-6.698666z m-61.312 0a27.648 27.648 0 0 1-1.834667-9.642667 148.394667 148.394667 0 0 0-148.650667-148.138667 148.394667 148.394667 0 0 0-148.650666 148.138667 27.690667 27.690667 0 0 1 0 9.642667h299.136z m-272.896 219.690666a38.272 38.272 0 0 1-37.717334-38.826666c0-21.418667 16.896-38.826667 37.717334-38.826667s37.717333 17.408 37.717333 38.826667-16.896 38.826667-37.717333 38.826666z m209.28-38.826666c0 21.418667 16.896 38.826667 37.717333 38.826666a38.272 38.272 0 0 0 37.717333-38.826666 38.272 38.272 0 0 0-37.717333-38.826667 38.272 38.272 0 0 0-37.717333 38.826667z" fill="#200E32" p-id="18137"></path></svg>