<?xml version="1.0" standalone="no"?><!DOCTYPE svg PUBLIC "-//W3C//DTD SVG 1.1//EN" "http://www.w3.org/Graphics/SVG/1.1/DTD/svg11.dtd"><svg t="1672537567751" class="icon" viewBox="0 0 1024 1024" version="1.1" xmlns="http://www.w3.org/2000/svg" p-id="23062" xmlns:xlink="http://www.w3.org/1999/xlink" width="64" height="64"><path d="M379.733333 85.333333h263.253334c115.626667 0 209.066667 45.653333 210.346666 161.706667v647.68c0 7.253333-1.706667 14.506667-5.12 20.906667-5.546667 10.24-14.933333 17.92-26.453333 21.333333-11.093333 3.413333-23.466667 1.706667-33.706667-4.266667l-276.48-138.24-276.906666 138.24c-6.357333 3.370667-13.653333 5.546667-20.906667 5.546667-23.893333 0-43.093333-19.626667-43.093333-43.52V247.04C170.666667 130.986667 264.533333 85.333333 379.733333 85.333333z m-29.013333 325.12h321.28c18.346667 0 33.28-14.976 33.28-33.706666 0-18.773333-14.933333-33.706667-33.28-33.706667H350.72c-18.346667 0-33.28 14.933333-33.28 33.706667 0 18.730667 14.933333 33.706667 33.28 33.706666z" fill="#200E32" p-id="23063"></path></svg>