<?xml version="1.0" standalone="no"?><!DOCTYPE svg PUBLIC "-//W3C//DTD SVG 1.1//EN" "http://www.w3.org/Graphics/SVG/1.1/DTD/svg11.dtd"><svg t="1672537496908" class="icon" viewBox="0 0 1024 1024" version="1.1" xmlns="http://www.w3.org/2000/svg" p-id="19566" xmlns:xlink="http://www.w3.org/1999/xlink" width="64" height="64"><path d="M700.16 118.144l0.085333 32c117.546667 9.173333 195.157333 89.258667 195.285334 212.053333L896 721.792c0.170667 133.888-83.968 216.277333-218.794667 216.490667l-329.386666 0.426666c-133.973333 0.170667-219.178667-84.181333-219.349334-218.453333L128 364.928c-0.170667-123.648 74.752-203.52 192.256-214.314667v-32a31.829333 31.829333 0 0 1 32.341333-32.853333 31.872 31.872 0 0 1 32.512 32.810667v29.866666l250.24-0.384v-29.866666A31.872 31.872 0 0 1 667.733333 85.333333a32.128 32.128 0 0 1 32.426667 32.810667zM192.938667 378.112l637.824-0.853333v-14.933334c-1.834667-91.733333-47.829333-139.818667-130.389334-146.986666v32.853333c0 18.346667-14.250667 32.853333-32.341333 32.853333a32.085333 32.085333 0 0 1-32.512-32.768v-34.56l-250.24 0.341334v34.56c0 18.346667-13.824 32.853333-32.384 32.853333a32.085333 32.085333 0 0 1-32.426667-32.810667l-0.085333-32.853333c-82.133333 8.234667-127.573333 56.533333-127.488 149.034667l0.042667 13.226666z m457.344 193.792v0.469333c0.426667 19.626667 16.426667 34.517333 35.84 34.090667a35.114667 35.114667 0 0 0 33.664-36.352 35.413333 35.413333 0 0 0-34.986667-34.005333 35.328 35.328 0 0 0-34.56 35.84z m34.773333 191.488a36.181333 36.181333 0 0 1-35.029333-36.181333 35.541333 35.541333 0 0 1 34.517333-36.352h0.426667c19.754667 0 35.84 16.170667 35.84 36.224a36.010667 36.010667 0 0 1-35.754667 36.309333z m-208.341333-190.805333c0.853333 19.626667 16.896 34.944 36.266666 34.090666a35.114667 35.114667 0 0 0 33.28-36.693333 34.816 34.816 0 0 0-35.029333-34.133333c-19.370667 0.853333-34.56 17.152-34.517333 36.736z m36.437333 188.885333a35.114667 35.114667 0 0 1-36.266667-34.090667c0-19.626667 15.104-35.84 34.517334-36.693333a34.773333 34.773333 0 0 1 34.986666 34.005333c0.853333 19.669333-14.293333 35.882667-33.237333 36.778667z m-210.005333-187.392c0.853333 19.626667 16.896 34.986667 36.266666 34.090667 18.986667-0.853333 34.133333-17.066667 33.194667-36.693334a34.773333 34.773333 0 0 0-34.986667-34.133333 36.352 36.352 0 0 0-34.474666 36.736z m36.437333 187.605333a35.072 35.072 0 0 1-36.266667-34.090666 36.394667 36.394667 0 0 1 34.517334-36.693334 34.773333 34.773333 0 0 1 34.986666 34.048c0.896 19.626667-14.208 35.882667-33.237333 36.736z" fill="#200E32" p-id="19567"></path></svg>