<?xml version="1.0" standalone="no"?><!DOCTYPE svg PUBLIC "-//W3C//DTD SVG 1.1//EN" "http://www.w3.org/Graphics/SVG/1.1/DTD/svg11.dtd"><svg t="1672537486939" class="icon" viewBox="0 0 1024 1024" version="1.1" xmlns="http://www.w3.org/2000/svg" p-id="18932" xmlns:xlink="http://www.w3.org/1999/xlink" width="64" height="64"><path d="M612.522667 85.674667a34.858667 34.858667 0 0 0-26.709334 7.509333 36.394667 36.394667 0 0 0-13.738666 24.917333 36.693333 36.693333 0 0 0 32.298666 40.533334 294.912 294.912 0 0 1 261.333334 261.930666 36.565333 36.565333 0 1 0 72.704-8.192c-19.370667-173.141333-153.344-307.456-325.888-326.698666z m2.645333 148.565333a36.437333 36.437333 0 0 0-42.837333 29.013333 36.778667 36.778667 0 0 0 28.885333 43.093334 147.712 147.712 0 0 1 117.077333 117.333333 36.693333 36.693333 0 0 0 42.922667 29.056 36.906667 36.906667 0 0 0 28.885333-43.093333 220.757333 220.757333 0 0 0-174.933333-175.402667zM682.666667 643.84c19.242667-11.093333 41.045333-23.637333 68.48-17.792 24.832 5.248 109.568 74.026667 132.778666 97.834667 15.189333 15.616 23.68 31.744 24.96 47.872 2.304 63.232-83.626667 135.424-99.242666 144.384a120.533333 120.533333 0 0 1-72.106667 22.528c-27.733333 0-58.666667-7.893333-92.416-23.637334-183.04-76.373333-462.677333-350.506667-536.618667-532.138666-30.72-67.626667-30.890667-123.392-0.512-165.290667 12.117333-19.669333 81.152-101.845333 142.933334-99.242667 16.469333 1.408 32.426667 9.856 48.128 25.173334 23.722667 23.253333 90.794667 108.245333 95.957333 133.205333 5.717333 27.733333-6.826667 49.749333-18.005333 69.12a327.722667 327.722667 0 0 1-9.130667 14.506667c-13.354667 20.48-31.146667 47.829333-24.832 65.28 45.098667 110.677333 149.248 207.274667 259.968 252.629333 17.109333 6.229333 44.458667-11.690667 64.896-25.088a336.64 336.64 0 0 1 14.293333-9.045333L682.666667 643.84z" fill="#200E32" p-id="18933"></path></svg>