<?xml version="1.0" standalone="no"?><!DOCTYPE svg PUBLIC "-//W3C//DTD SVG 1.1//EN" "http://www.w3.org/Graphics/SVG/1.1/DTD/svg11.dtd"><svg t="1672537494199" class="icon" viewBox="0 0 1024 1024" version="1.1" xmlns="http://www.w3.org/2000/svg" p-id="19408" xmlns:xlink="http://www.w3.org/1999/xlink" width="64" height="64"><path d="M744.106667 266.069333c1.706667 2.986667 4.693333 5.12 8.533333 5.12 102.4 0 186.026667 83.541333 186.026667 185.813334v253.184A186.368 186.368 0 0 1 752.64 896H271.36A186.069333 186.069333 0 0 1 85.333333 710.186667V456.96a186.069333 186.069333 0 0 1 186.026667-185.813333c3.413333 0 6.826667-1.706667 8.106667-5.12l2.56-5.12 4.522666-9.472a4172.373333 4172.373333 0 0 1 30.464-63.402667C336.64 149.76 369.92 128.426667 411.306667 128h200.96c41.386667 0.426667 75.093333 21.76 94.72 60.074667 6.698667 13.44 16.938667 35.072 26.837333 55.893333l6.016 12.757333 4.266667 9.386667z m-31.146667 163.669334c0 21.333333 17.066667 38.4 38.4 38.4s38.826667-17.066667 38.826667-38.4-17.493333-38.784-38.826667-38.784-38.4 17.493333-38.4 38.826666z m-274.773333 66.048c20.053333-20.053333 46.08-30.677333 73.813333-30.677334 27.733333 0 53.76 10.666667 73.386667 30.293334 19.626667 19.584 30.293333 45.568 30.293333 73.258666A104.021333 104.021333 0 0 1 512 672.256c-27.733333 0-53.76-10.666667-73.386667-30.293333a102.741333 102.741333 0 0 1-30.293333-73.258667v-0.426667c-0.426667-26.88 10.24-52.906667 29.866667-72.490666z m192 191.36a166.826667 166.826667 0 0 1-118.186667 49.066666 167.296 167.296 0 0 1-167.68-167.509333 164.906667 164.906667 0 0 1 48.64-118.058667A167.296 167.296 0 0 1 512 401.152c44.8 0 87.04 17.493333 118.613333 49.066667 31.573333 31.957333 49.066667 74.154667 49.066667 118.485333a168.874667 168.874667 0 0 1-49.493333 118.442667z" fill="#200E32" p-id="19409"></path></svg>