<?xml version="1.0" standalone="no"?><!DOCTYPE svg PUBLIC "-//W3C//DTD SVG 1.1//EN" "http://www.w3.org/Graphics/SVG/1.1/DTD/svg11.dtd"><svg t="1672537462973" class="icon" viewBox="0 0 1024 1024" version="1.1" xmlns="http://www.w3.org/2000/svg" p-id="17504" xmlns:xlink="http://www.w3.org/1999/xlink" width="64" height="64"><path d="M85.333333 512.64C85.333333 287.872 264.96 85.333333 512.853333 85.333333 755.2 85.333333 938.666667 284.032 938.666667 511.36 938.666667 775.04 723.626667 938.666667 512 938.666667c-69.973333 0-147.626667-18.773333-209.92-55.552-21.76-13.226667-40.106667-23.04-63.573333-15.36l-86.186667 25.6c-21.76 6.826667-41.386667-10.24-34.986667-33.28l28.586667-95.744c4.693333-13.226667 3.84-27.349333-2.986667-38.485334C106.24 658.346667 85.333333 584.405333 85.333333 512.64z m371.2 0c0 30.336 24.32 54.698667 54.613334 55.125333 30.293333 0 54.613333-24.746667 54.613333-54.698666 0-30.336-24.32-54.698667-54.613333-54.698667-29.866667-0.426667-54.613333 24.362667-54.613334 54.272z m196.693334 0.426667c0 29.909333 24.32 54.698667 54.613333 54.698666 30.293333 0 54.613333-24.746667 54.613333-54.698666 0-30.336-24.32-54.698667-54.613333-54.698667-30.293333 0-54.613333 24.362667-54.613333 54.698667z m-338.773334 54.698666c-29.866667 0-54.613333-24.746667-54.613333-54.698666 0-30.336 24.32-54.698667 54.613333-54.698667 30.293333 0 54.613333 24.362667 54.613334 54.698667a55.04 55.04 0 0 1-54.613334 54.698666z" fill="#200E32" p-id="17505"></path></svg>