<?xml version="1.0" standalone="no"?><!DOCTYPE svg PUBLIC "-//W3C//DTD SVG 1.1//EN" "http://www.w3.org/Graphics/SVG/1.1/DTD/svg11.dtd"><svg t="1672537521350" class="icon" viewBox="0 0 1024 1024" version="1.1" xmlns="http://www.w3.org/2000/svg" p-id="20994" xmlns:xlink="http://www.w3.org/1999/xlink" width="64" height="64"><path d="M333.226667 85.333333h357.589333C822.613333 85.333333 896 161.28 896 291.413333v440.746667c0 132.266667-73.386667 206.506667-205.184 206.506667H333.226667C203.52 938.666667 128 864.426667 128 732.16V291.413333C128 161.28 203.52 85.333333 333.226667 85.333333z m11.52 198.826667v-0.426667h127.530666c18.389333 0 33.322667 14.933333 33.322667 33.237334 0 18.816-14.933333 33.749333-33.322667 33.749333H344.746667a33.28 33.28 0 0 1 0-66.56z m0 259.413333h334.506666a33.322667 33.322667 0 0 0 0-66.602666H344.746667a33.322667 33.322667 0 0 0 0 66.602666z m0 194.986667h334.506666c17.024-1.706667 29.866667-16.256 29.866667-33.28 0-17.493333-12.842667-32-29.866667-33.706667H344.746667a33.92 33.92 0 0 0-32 51.626667c6.826667 10.666667 19.2 17.066667 32 15.36z" fill="#200E32" p-id="20995"></path></svg>