<?xml version="1.0" standalone="no"?><!DOCTYPE svg PUBLIC "-//W3C//DTD SVG 1.1//EN" "http://www.w3.org/Graphics/SVG/1.1/DTD/svg11.dtd"><svg t="1672537542954" class="icon" viewBox="0 0 1024 1024" version="1.1" xmlns="http://www.w3.org/2000/svg" p-id="22266" xmlns:xlink="http://www.w3.org/1999/xlink" width="64" height="64"><path d="M479.146667 311.04V140.074667c0-18.218667 14.506667-33.365333 32.853333-33.365334 16.426667 0 30.336 12.714667 32.554667 28.885334l0.298666 4.437333v171.093333h203.946667c101.546667 0 184.96 83.157333 189.653333 186.88l0.213334 9.173334v215.04c0 104.405333-80.512 190.122667-180.565334 194.944l-8.874666 0.213333H274.773333c-101.546667 0-184.576-82.773333-189.226666-186.837333L85.333333 721.28v-214.613333c0-104.405333 80.128-190.549333 180.138667-195.413334l8.874667-0.170666h204.8v273.152l-68.266667-70.485334a32.213333 32.213333 0 0 0-46.506667 0 34.56 34.56 0 0 0-9.386666 24.234667c0 6.698667 1.92 13.653333 5.973333 19.584l3.413333 4.224 124.16 128.64c5.973333 6.613333 14.506667 10.112 23.466667 10.112a31.36 31.36 0 0 0 19.84-7.082667l3.2-3.029333 124.16-128.64c12.8-13.226667 12.8-34.816 0-48.042667a32.213333 32.213333 0 0 0-42.837333-3.285333l-3.669334 3.285333-67.84 70.485334V311.082667h-65.706666z" fill="#200E32" p-id="22267"></path></svg>