<?xml version="1.0" standalone="no"?><!DOCTYPE svg PUBLIC "-//W3C//DTD SVG 1.1//EN" "http://www.w3.org/Graphics/SVG/1.1/DTD/svg11.dtd"><svg t="1672537491801" class="icon" viewBox="0 0 1024 1024" version="1.1" xmlns="http://www.w3.org/2000/svg" p-id="19250" xmlns:xlink="http://www.w3.org/1999/xlink" width="64" height="64"><path d="M400.042667 854.528l374.912-484.821333c20.352-26.112 27.605333-56.32 20.821333-87.125334-5.888-27.989333-23.082667-54.613333-48.896-74.752L683.946667 157.824c-54.784-43.562667-122.709333-38.997333-161.664 11.008l-42.069334 54.613333a16.128 16.128 0 0 0 2.688 22.442667l108.672 87.125333c7.253333 6.912 12.672 16.085333 14.08 27.093334a40.32 40.32 0 0 1-34.901333 44.458666 36.096 36.096 0 0 1-27.605333-7.765333l-111.829334-89.002667a13.354667 13.354667 0 0 0-18.133333 2.304L147.413333 654.08c-17.194667 21.546667-23.082667 49.536-17.194666 76.586667l33.962666 147.242666a17.066667 17.066667 0 0 0 16.725334 13.312l149.418666-1.834666a89.770667 89.770667 0 0 0 69.717334-34.858667z m209.237333-45.866667h243.626667c23.765333 0 43.093333 19.626667 43.093333 43.690667 0 24.106667-19.328 43.648-43.093333 43.648h-243.626667c-23.765333 0-43.093333-19.541333-43.093333-43.648s19.328-43.690667 43.093333-43.690667z" fill="#200E32" p-id="19251"></path></svg>