<?xml version="1.0" standalone="no"?><!DOCTYPE svg PUBLIC "-//W3C//DTD SVG 1.1//EN" "http://www.w3.org/Graphics/SVG/1.1/DTD/svg11.dtd"><svg t="1672815868142" class="icon" viewBox="0 0 1024 1024" version="1.1" xmlns="http://www.w3.org/2000/svg" p-id="16670" xmlns:xlink="http://www.w3.org/1999/xlink" width="64" height="64"><path d="M511.3 858.7c-47 0-92.6-9.2-135.6-27.4-41.5-17.5-78.7-42.7-110.7-74.6s-57-69.2-74.6-110.7c-18.2-43-27.4-88.6-27.4-135.6s9.2-92.6 27.4-135.6c17.5-41.5 42.7-78.7 74.6-110.7 32-32 69.2-57.1 110.7-74.6 43-18.2 88.6-27.4 135.6-27.4s92.6 9.2 135.6 27.4c41.5 17.5 78.7 42.7 110.7 74.6 32 32 57.1 69.2 74.6 110.7 18.2 43 27.4 88.6 27.4 135.6 0 48.8-9.9 96.1-29.5 140.4-6 13.6-22 19.8-35.6 13.8-13.6-6-19.8-22-13.8-35.6 16.5-37.4 24.9-77.3 24.9-118.6 0-162.3-132-294.3-294.3-294.3S217 348.1 217 510.4s132 294.3 294.3 294.3c64 0 124.8-20.2 175.8-58.3 11.9-8.9 28.9-6.5 37.8 5.5 8.9 11.9 6.5 28.9-5.5 37.8-60.4 45.2-132.4 69-208.1 69z" fill="#FF0000" p-id="16671"></path><path d="M511.3 603c-20.4 0-37-16.6-37-37V310.2c0-20.4 16.6-37 37-37s37 16.6 37 37V566c0 20.5-16.5 37-37 37zM513 741.6c-27.9 0-50.5-22.7-50.5-50.5s22.7-50.5 50.5-50.5 50.5 22.7 50.5 50.5-22.6 50.5-50.5 50.5z m0-54c-1.9 0-3.5 1.6-3.5 3.5s1.6 3.5 3.5 3.5 3.5-1.6 3.5-3.5-1.6-3.5-3.5-3.5z" fill="#FF0000" p-id="16672"></path></svg>