<?xml version="1.0" standalone="no"?><!DOCTYPE svg PUBLIC "-//W3C//DTD SVG 1.1//EN" "http://www.w3.org/Graphics/SVG/1.1/DTD/svg11.dtd"><svg t="1672537533048" class="icon" viewBox="0 0 1024 1024" version="1.1" xmlns="http://www.w3.org/2000/svg" p-id="21470" xmlns:xlink="http://www.w3.org/1999/xlink" width="64" height="64"><path d="M378.794667 272.170667c0 79.616-65.706667 144.213333-146.773334 144.213333C151.04 416.341333 85.333333 351.744 85.333333 272.128 85.333333 192.554667 151.04 128 232.064 128c81.066667 0 146.730667 64.554667 146.730667 144.170667z m495.573333-63.146667c35.456 0 64.298667 28.288 64.298667 63.146667s-28.842667 63.146667-64.298667 63.146666h-280.533333c-35.498667 0-64.341333-28.288-64.341334-63.146666s28.842667-63.146667 64.341334-63.146667h280.533333zM149.674667 680.832h280.533333c35.498667 0 64.341333 28.330667 64.341333 63.189333 0 34.858667-28.8 63.232-64.341333 63.232H149.674667C114.176 807.253333 85.333333 778.922667 85.333333 744.064s28.842667-63.189333 64.341334-63.189333z m642.261333 205.653333c81.066667 0 146.730667-64.554667 146.730667-144.170666 0-79.658667-65.664-144.213333-146.730667-144.213334-81.024 0-146.730667 64.597333-146.730667 144.213334 0 79.616 65.706667 144.170667 146.773334 144.170666z" fill="#200E32" p-id="21471"></path></svg>