<?xml version="1.0" standalone="no"?><!DOCTYPE svg PUBLIC "-//W3C//DTD SVG 1.1//EN" "http://www.w3.org/Graphics/SVG/1.1/DTD/svg11.dtd"><svg t="1672537584421" class="icon" viewBox="0 0 1024 1024" version="1.1" xmlns="http://www.w3.org/2000/svg" p-id="24176" xmlns:xlink="http://www.w3.org/1999/xlink" width="64" height="64"><path d="M176.128 85.333333h671.744C898.048 85.333333 938.666667 127.189333 938.666667 178.858667v65.365333c0 25.045333-9.813333 49.152-27.178667 66.688l-277.546667 280.746667a25.002667 25.002667 0 0 1-18.048 7.552l-232.362666-0.725334a25.216 25.216 0 0 1-18.645334-8.32L109.866667 309.632A95.146667 95.146667 0 0 1 85.333333 245.632V178.944C85.333333 127.274667 125.952 85.333333 176.128 85.333333zM395.946667 675.157333l207.146666 0.64a23.808 23.808 0 0 1 23.338667 24.106667v116.522667a34.090667 34.090667 0 0 1-19.328 30.933333l-187.989333 88.277333a32.426667 32.426667 0 0 1-31.530667-2.346666 34.218667 34.218667 0 0 1-15.146667-28.586667V699.306667c0-13.312 10.538667-24.149333 23.509334-24.106667z" fill="#200E32" p-id="24177"></path></svg>