<?xml version="1.0" standalone="no"?><!DOCTYPE svg PUBLIC "-//W3C//DTD SVG 1.1//EN" "http://www.w3.org/Graphics/SVG/1.1/DTD/svg11.dtd"><svg t="1672537518792" class="icon" viewBox="0 0 1024 1024" version="1.1" xmlns="http://www.w3.org/2000/svg" p-id="20836" xmlns:xlink="http://www.w3.org/1999/xlink" width="64" height="64"><path d="M525.909333 94.293333a35.157333 35.157333 0 0 1 25.088-8.96c194.986667 5.888 357.973333 147.456 387.541334 336.64a10.410667 10.410667 0 0 1 0 3.413334 33.322667 33.322667 0 0 1-8.405334 24.576 34.602667 34.602667 0 0 1-23.68 11.477333l-327.68 21.589333a39.125333 39.125333 0 0 1-29.568-9.813333 37.546667 37.546667 0 0 1-12.501333-28.074667l-22.058667-321.877333v-5.290667a33.834667 33.834667 0 0 1 11.264-23.68zM503.466667 567.210667l283.989333-18.218667 1.92 0.768c12.202667 0.213333 23.808 5.12 32.298667 13.738667 8.490667 8.618667 13.141333 20.181333 12.928 32.128-11.221333 163.072-130.773333 299.306667-293.461334 334.421333-162.730667 35.114667-329.514667-39.381333-409.386666-182.784a350.506667 350.506667 0 0 1-43.690667-133.802667 254.122667 254.122667 0 0 1-2.688-42.112C85.930667 397.952 209.365333 248.32 382.122667 211.626667c20.906667-3.925333 41.898667 6.485333 51.029333 25.386666 2.261333 3.413333 4.053333 7.125333 5.376 10.965334 3.242667 50.005333 6.613333 99.541333 9.941333 148.821333 2.645333 38.954667 5.290667 77.738667 7.850667 116.565333-0.128 9.130667 1.28 18.218667 4.266667 26.88 6.912 17.066667 24.149333 27.904 42.88 26.965334z" fill="#200E32" p-id="20837"></path></svg>