<?xml version="1.0" standalone="no"?><!DOCTYPE svg PUBLIC "-//W3C//DTD SVG 1.1//EN" "http://www.w3.org/Graphics/SVG/1.1/DTD/svg11.dtd"><svg t="1672537540743" class="icon" viewBox="0 0 1024 1024" version="1.1" xmlns="http://www.w3.org/2000/svg" p-id="22106" xmlns:xlink="http://www.w3.org/1999/xlink" width="64" height="64"><path d="M389.76 886.314667v-130.432c0-33.28 27.178667-60.330667 60.714667-60.330667h122.666666c16.085333 0 31.573333 6.4 42.922667 17.664 11.392 11.306667 17.792 26.666667 17.792 42.666667v130.432c-0.085333 13.866667 5.376 27.178667 15.189333 36.992 9.813333 9.813333 23.210667 15.36 37.12 15.36h83.712a147.626667 147.626667 0 0 0 104.234667-42.666667 145.493333 145.493333 0 0 0 43.221333-103.338667V420.992c0-31.36-13.994667-61.056-38.186666-81.152l-284.629334-225.706667a132.138667 132.138667 0 0 0-168.490666 3.072L147.925333 339.84A105.557333 105.557333 0 0 0 106.666667 420.992v371.285333C106.666667 873.130667 172.672 938.666667 254.122667 938.666667h81.749333c29.013333 0 52.522667-23.210667 52.736-51.968l1.152-0.384z" fill="#200E32" p-id="22107"></path></svg>