<?xml version="1.0" standalone="no"?><!DOCTYPE svg PUBLIC "-//W3C//DTD SVG 1.1//EN" "http://www.w3.org/Graphics/SVG/1.1/DTD/svg11.dtd"><svg t="1672537604872" class="icon" viewBox="0 0 1024 1024" version="1.1" xmlns="http://www.w3.org/2000/svg" p-id="25446" xmlns:xlink="http://www.w3.org/1999/xlink" width="64" height="64"><path d="M327.082667 938.666667h369.792C841.514667 938.666667 938.666667 837.205333 938.666667 686.208V337.792C938.666667 186.794667 841.514667 85.333333 696.917333 85.333333H327.082667C182.442667 85.333333 85.333333 186.794667 85.333333 337.792v348.416C85.333333 837.205333 182.485333 938.666667 327.082667 938.666667zM362.666667 469.333333A106.752 106.752 0 0 1 256 362.666667C256 303.872 303.786667 256 362.624 256a106.794667 106.794667 0 0 1 106.624 106.666667c0 58.794667-47.829333 106.666667-106.666667 106.666666z m483.072 167.850667c14.293333 36.650667 6.826667 80.64-8.405334 116.906667-18.133333 43.178667-52.778667 75.861333-96.426666 90.112a193.066667 193.066667 0 0 1-60.074667 9.130666H321.28c-35.797333 0-67.456-8.576-93.44-24.576-16.213333-10.026667-19.114667-33.194667-7.04-48.213333 20.138667-25.088 40.064-50.261333 60.16-75.690667 38.229333-48.64 64-62.72 92.672-50.346666 11.648 5.12 23.296 12.8 35.328 20.906666 32 21.76 76.501333 51.626667 135.125333 19.2 40.106667-22.485333 63.36-61.013333 83.626667-94.549333l0.341333-0.554667 4.266667-7.082666c6.826667-11.264 13.525333-22.357333 21.12-32.597334 9.514667-12.8 44.8-52.906667 90.581333-24.32 29.098667 17.92 53.632 42.24 79.829334 68.266667 9.984 9.941333 17.109333 21.248 21.888 33.408z" fill="#200E32" p-id="25447"></path></svg>