<?xml version="1.0" standalone="no"?><!DOCTYPE svg PUBLIC "-//W3C//DTD SVG 1.1//EN" "http://www.w3.org/Graphics/SVG/1.1/DTD/svg11.dtd"><svg t="1672537512144" class="icon" viewBox="0 0 1024 1024" version="1.1" xmlns="http://www.w3.org/2000/svg" p-id="20520" xmlns:xlink="http://www.w3.org/1999/xlink" width="64" height="64"><path d="M85.333333 512C85.333333 276.48 276.48 85.333333 512 85.333333c235.946667 0 426.666667 191.146667 426.666667 426.666667s-190.72 426.666667-426.666667 426.666667C276.48 938.666667 85.333333 747.52 85.333333 512z m389.12-161.706667c0-20.48 17.066667-37.546667 37.546667-37.546666s37.12 17.066667 37.12 37.546666v188.586667a37.12 37.12 0 0 1-37.12 37.12 37.504 37.504 0 0 1-37.546667-37.12V350.293333z m37.973334 361.386667c-20.906667 0-37.546667-17.066667-37.546667-37.546667s16.64-37.12 37.12-37.12c20.906667 0 37.546667 16.64 37.546667 37.12s-16.64 37.546667-37.12 37.546667z" fill="#200E32" p-id="20521"></path></svg>