<?xml version="1.0" standalone="no"?><!DOCTYPE svg PUBLIC "-//W3C//DTD SVG 1.1//EN" "http://www.w3.org/Graphics/SVG/1.1/DTD/svg11.dtd"><svg t="1673059149572" class="icon" viewBox="0 0 1024 1024" version="1.1" xmlns="http://www.w3.org/2000/svg" p-id="2051" xmlns:xlink="http://www.w3.org/1999/xlink" width="64" height="64"><path d="M483.712 888.064a52.437333 52.437333 0 1 1 52.48 52.352 52.394667 52.394667 0 0 1-52.48-52.352z m-235.434667-53.76a65.578667 65.578667 0 1 1 46.421334 19.242667 65.962667 65.962667 0 0 1-46.378667-19.242667z m499.584-16.597333a41.984 41.984 0 0 1 59.264-59.434667 42.282667 42.282667 0 0 1 0 59.434667 41.941333 41.941333 0 0 1-59.264 0zM112.853333 546.602667a81.92 81.92 0 1 1 81.92 81.92 81.834667 81.834667 0 0 1-81.92-81.877334z m731.008 0a33.536 33.536 0 1 1 33.493334 33.578666 33.578667 33.578667 0 0 1-33.450667-33.536zM222.208 377.6a102.4 102.4 0 1 1 72.533333 29.866667 102.869333 102.869333 0 0 1-72.533333-29.824z m536.32-53.504a26.666667 26.666667 0 1 1 18.816 7.936 26.368 26.368 0 0 1-18.773333-7.893333zM414.378667 205.184a121.642667 121.642667 0 1 1 121.813333 121.6A121.728 121.728 0 0 1 414.378667 205.226667z" p-id="2052"></path></svg>