<?xml version="1.0" standalone="no"?><!DOCTYPE svg PUBLIC "-//W3C//DTD SVG 1.1//EN" "http://www.w3.org/Graphics/SVG/1.1/DTD/svg11.dtd"><svg t="1672537570090" class="icon" viewBox="0 0 1024 1024" version="1.1" xmlns="http://www.w3.org/2000/svg" p-id="23222" xmlns:xlink="http://www.w3.org/1999/xlink" width="64" height="64"><path d="M149.333333 440.234667C149.333333 243.968 313.344 85.333333 511.701333 85.333333c198.954667 0 362.965333 158.634667 362.965334 354.901334 0 98.901333-35.968 190.72-95.146667 268.544a941.354667 941.354667 0 0 1-236.416 219.306666c-20.736 13.568-39.466667 14.592-62.250667 0a923.306667 923.306667 0 0 1-236.373333-219.306666c-59.221333-77.824-95.146667-169.642667-95.146667-268.544z m242.944 11.050666c0 65.706667 53.674667 117.461333 119.466667 117.461334 65.792 0 119.978667-51.712 119.978667-117.461334 0-65.28-54.186667-119.466667-120.021334-119.466666a120.064 120.064 0 0 0-119.424 119.466666z" fill="#200E32" p-id="23223"></path></svg>