<?xml version="1.0" standalone="no"?><!DOCTYPE svg PUBLIC "-//W3C//DTD SVG 1.1//EN" "http://www.w3.org/Graphics/SVG/1.1/DTD/svg11.dtd"><svg t="1672537597992" class="icon" viewBox="0 0 1024 1024" version="1.1" xmlns="http://www.w3.org/2000/svg" p-id="24970" xmlns:xlink="http://www.w3.org/1999/xlink" width="64" height="64"><path d="M747.648 315.562667v65.408c73.472 22.954667 127.018667 89.472 127.018667 168.96v210.602666c0 98.389333-81.536 178.133333-182.101334 178.133334H331.52C230.826667 938.666667 149.333333 858.88 149.333333 760.533333v-210.645333c0-79.445333 53.589333-145.962667 127.018667-168.917333V315.562667C276.778667 188.373333 382.165333 85.333333 511.36 85.333333c130.944 0 236.288 103.04 236.288 230.229334z m-235.434667-156.032c88.021333 0 159.573333 69.973333 159.573334 156.032v56.234666h-319.573334V314.709333c0.426667-85.632 71.978667-155.178667 160-155.178666z m37.717334 542.549333a37.546667 37.546667 0 0 1-38.144 37.290667 37.418667 37.418667 0 0 1-37.717334-37.290667v-94.122667c0-20.352 16.896-36.906667 37.717334-36.906666 21.248 0 38.144 16.554667 38.144 36.906666v94.122667z" fill="#200E32" p-id="24971"></path></svg>