<?xml version="1.0" standalone="no"?><!DOCTYPE svg PUBLIC "-//W3C//DTD SVG 1.1//EN" "http://www.w3.org/Graphics/SVG/1.1/DTD/svg11.dtd"><svg t="1672537546345" class="icon" viewBox="0 0 1024 1024" version="1.1" xmlns="http://www.w3.org/2000/svg" p-id="22424" xmlns:xlink="http://www.w3.org/1999/xlink" width="64" height="64"><path d="M507.136 85.333333h215.04C829.610667 85.333333 917.333333 170.666667 917.333333 274.773333v474.453334c0 104.533333-87.68 189.44-196.053333 189.44h-214.613333c-107.477333 0-195.584-84.906667-195.584-189.013334v-204.8h273.152l-70.485334 68.266667c-13.226667 12.8-13.226667 33.706667 0 46.506667a34.56 34.56 0 0 0 24.234667 9.386666c8.362667 0 17.194667-2.986667 23.808-9.386666l128.64-124.16a31.402667 31.402667 0 0 0 10.112-23.466667c0-8.533333-3.498667-17.066667-10.112-23.04l-128.64-124.16a34.816 34.816 0 0 0-48.042667 0c-13.226667 12.8-13.226667 33.706667 0 46.506667l70.485334 67.84H311.082667V275.2C311.04 170.666667 399.189333 85.333333 507.136 85.333333zM106.666667 512c0-17.92 15.146667-32.853333 33.322666-32.853333h171.093334v65.706666H139.946667A33.109333 33.109333 0 0 1 106.666667 512z" fill="#200E32" p-id="22425"></path></svg>