<?xml version="1.0" standalone="no"?><!DOCTYPE svg PUBLIC "-//W3C//DTD SVG 1.1//EN" "http://www.w3.org/Graphics/SVG/1.1/DTD/svg11.dtd"><svg t="1672537536924" class="icon" viewBox="0 0 1024 1024" version="1.1" xmlns="http://www.w3.org/2000/svg" p-id="21788" xmlns:xlink="http://www.w3.org/1999/xlink" width="64" height="64"><path d="M422.186667 479.146667a32.853333 32.853333 0 0 0-33.408 32.853333c0 17.92 14.762667 32.853333 33.408 32.853333H682.666667v203.946667C682.666667 853.333333 596.266667 938.666667 489.472 938.666667H278.058667C171.733333 938.666667 85.333333 853.76 85.333333 749.226667V275.2C85.333333 170.24 172.16 85.333333 278.528 85.333333h211.84C596.266667 85.333333 682.666667 170.24 682.666667 274.773333v204.373334H422.186667z m415.36-114.773334l124.586666 124.16a32.597333 32.597333 0 0 1 0 46.506667l-124.586666 124.16c-6.4 6.4-14.933333 9.813333-23.04 9.813333a32.981333 32.981333 0 0 1-23.466667-56.32l68.266667-67.84H682.666667v-65.706666h176.64l-68.266667-67.84c-12.8-12.8-12.8-33.706667 0-46.506667 12.8-13.226667 33.706667-13.226667 46.506667-0.426667z" fill="#200E32" p-id="21789"></path></svg>