<?xml version="1.0" standalone="no"?><!DOCTYPE svg PUBLIC "-//W3C//DTD SVG 1.1//EN" "http://www.w3.org/Graphics/SVG/1.1/DTD/svg11.dtd"><svg t="1672537579429" class="icon" viewBox="0 0 1024 1024" version="1.1" xmlns="http://www.w3.org/2000/svg" p-id="23860" xmlns:xlink="http://www.w3.org/1999/xlink" width="64" height="64"><path d="M722.773333 128A215.765333 215.765333 0 0 1 938.666667 343.466667v337.066666c0 119.04-96.853333 215.466667-215.893334 215.466667H301.226667A215.765333 215.765333 0 0 1 85.333333 680.533333v-337.066666A215.466667 215.466667 0 0 1 301.226667 128h421.546666z m67.84 279.04l3.413334-3.413333a32.981333 32.981333 0 0 0-0.426667-42.666667 35.84 35.84 0 0 0-22.613333-11.093333 32.426667 32.426667 0 0 0-23.893334 8.533333L554.666667 512a66.816 66.816 0 0 1-85.333334 0L277.333333 358.4a32.426667 32.426667 0 0 0-42.666666 2.986667c-11.52 11.52-12.8 29.866667-2.986667 42.666666l5.546667 5.546667 194.133333 151.466667a134.101333 134.101333 0 0 0 166.826667 0l192.426666-154.026667z" fill="#200E32" p-id="23861"></path></svg>