<?xml version="1.0" standalone="no"?><!DOCTYPE svg PUBLIC "-//W3C//DTD SVG 1.1//EN" "http://www.w3.org/Graphics/SVG/1.1/DTD/svg11.dtd"><svg t="1672537588854" class="icon" viewBox="0 0 1024 1024" version="1.1" xmlns="http://www.w3.org/2000/svg" p-id="24334" xmlns:xlink="http://www.w3.org/1999/xlink" width="64" height="64"><path d="M798.165333 375.296c0 53.589333 14.165333 85.205333 45.354667 121.6 23.594667 26.794667 31.146667 61.226667 31.146667 98.56 0 37.290667-12.245333 72.704-36.821334 101.461333a193.578667 193.578667 0 0 1-123.733333 60.288c-67.029333 5.717333-134.101333 10.538667-202.069333 10.538667-68.053333 0-135.082667-2.901333-202.112-10.538667a193.365333 193.365333 0 0 1-123.733334-60.288 154.282667 154.282667 0 0 1-36.864-101.461333c0-37.333333 7.594667-71.765333 31.146667-98.56 32.170667-36.437333 45.397333-68.010667 45.397333-121.6V357.12c0-71.765333 17.92-118.656 54.741334-164.608C335.402667 125.525333 423.210667 85.333333 510.122667 85.333333h3.84c88.746667 0 179.370667 42.112 233.216 112 34.986667 44.970667 50.986667 89.941333 50.986666 159.786667v18.176zM387.157333 855.936c0-21.504 19.712-31.317333 37.973334-35.541333 21.333333-4.522667 151.253333-4.522667 172.586666 0 18.261333 4.224 37.973333 14.08 37.973334 35.541333-1.066667 20.48-13.056 38.570667-29.653334 50.090667a155.093333 155.093333 0 0 1-73.088 31.189333 161.92 161.92 0 0 1-43.008 0 154.368 154.368 0 0 1-73.130666-31.232c-16.64-11.477333-28.586667-29.610667-29.653334-50.048z" fill="#200E32" p-id="24335"></path></svg>