<?xml version="1.0" standalone="no"?><!DOCTYPE svg PUBLIC "-//W3C//DTD SVG 1.1//EN" "http://www.w3.org/Graphics/SVG/1.1/DTD/svg11.dtd"><svg t="1672537607306" class="icon" viewBox="0 0 1024 1024" version="1.1" xmlns="http://www.w3.org/2000/svg" p-id="25604" xmlns:xlink="http://www.w3.org/1999/xlink" width="64" height="64"><path d="M518.528 709.973333l121.258667-122.453333a32 32 0 0 0-0.426667-45.226667 31.146667 31.146667 0 0 0-44.373333 0l-67.157334 68.266667V404.906667a31.445333 31.445333 0 1 0-62.933333 0v205.653333l-67.157333-68.266667a31.146667 31.146667 0 0 0-44.373334 0 32.426667 32.426667 0 0 0 0 45.226667l120.832 122.453333a32.768 32.768 0 0 0 22.4 9.386667 32.725333 32.725333 0 0 0 21.973334-9.386667z m306.133333-324.864c9.941333-0.128 20.736-0.256 30.592-0.256 10.965333 0 19.413333 8.533333 19.413334 19.2v343.04c0 105.813333-85.333333 191.573333-190.08 191.573334H348.714667C238.506667 938.666667 149.333333 848.64 149.333333 737.706667V277.76C149.333333 171.946667 234.24 85.333333 339.84 85.333333h225.578667c10.581333 0 19.456 8.96 19.456 19.626667v137.386667c0 78.08 63.36 142.08 141.098666 142.506666 17.834667 0 33.834667 0.128 47.786667 0.256 10.794667 0.085333 20.352 0.170667 28.672 0.170667 5.973333 0 13.824-0.085333 22.229333-0.170667z m11.818667-62.293333c-34.688 0.128-75.648 0-105.088-0.298667-46.72 0-85.205333-38.826667-85.205333-86.058666V123.989333c0-18.346667 22.101333-27.52 34.688-14.250666l124.416 130.645333 45.696 48a20.352 20.352 0 0 1-14.506667 34.432z" fill="#200E32" p-id="25605"></path></svg>