<?xml version="1.0" standalone="no"?><!DOCTYPE svg PUBLIC "-//W3C//DTD SVG 1.1//EN" "http://www.w3.org/Graphics/SVG/1.1/DTD/svg11.dtd"><svg t="1672537614590" class="icon" viewBox="0 0 1024 1024" version="1.1" xmlns="http://www.w3.org/2000/svg" p-id="26084" xmlns:xlink="http://www.w3.org/1999/xlink" width="64" height="64"><path d="M599.68 651.093333a31.914667 31.914667 0 0 0 0-44.8l-51.541333-52.053333 51.541333-52.053333a31.914667 31.914667 0 0 0 0-44.8 30.890667 30.890667 0 0 0-44.8 0l-51.541333 52.053333-51.541334-52.053333a30.421333 30.421333 0 0 0-44.373333 0 31.914667 31.914667 0 0 0 0 44.8l51.541333 52.053333-51.498666 52.053333a31.914667 31.914667 0 0 0 0 44.8c5.888 6.4 13.909333 9.386667 21.930666 9.386667s16.469333-2.986667 22.4-9.386667l51.541334-52.053333 51.541333 52.053333a31.146667 31.146667 0 0 0 22.4 9.386667c8.021333 0 16.042667-2.986667 22.4-9.386667z m225.28-265.984c9.984-0.128 20.736-0.256 30.293333-0.256 10.965333 0 19.413333 8.533333 19.413334 19.2v343.04c0 105.813333-84.906667 191.573333-190.08 191.573334H348.714667C238.506667 938.666667 149.333333 848.64 149.333333 737.706667V277.76C149.333333 171.946667 234.666667 85.333333 339.84 85.333333h225.578667c10.581333 0 19.456 8.96 19.456 19.626667v137.386667c0 78.08 63.786667 142.08 141.098666 142.506666 17.834667 0 33.834667 0.128 47.786667 0.256 10.794667 0.085333 20.352 0.170667 28.672 0.170667 6.058667 0 13.994667-0.085333 22.528-0.170667z m11.52-62.293333c-34.688 0.128-75.605333 0-105.045333-0.298667-46.72 0-85.205333-38.826667-85.205334-86.058666V123.989333c0-18.346667 22.101333-27.52 34.688-14.250666a348144.682667 348144.682667 0 0 1 170.112 178.645333 20.352 20.352 0 0 1-14.506666 34.432z" fill="#200E32" p-id="26085"></path></svg>