<?xml version="1.0" standalone="no"?><!DOCTYPE svg PUBLIC "-//W3C//DTD SVG 1.1//EN" "http://www.w3.org/Graphics/SVG/1.1/DTD/svg11.dtd"><svg t="1672537576661" class="icon" viewBox="0 0 1024 1024" version="1.1" xmlns="http://www.w3.org/2000/svg" p-id="23702" xmlns:xlink="http://www.w3.org/1999/xlink" width="64" height="64"><path d="M725.76 622.976a32 32 0 0 0 32-32V512a32 32 0 0 0-32-32H482.986667A110.762667 110.762667 0 0 0 377.173333 401.066667a111.104 111.104 0 0 0-110.976 110.933333 111.104 111.104 0 0 0 110.933334 111.018667 110.762667 110.762667 0 0 0 105.770666-79.018667h90.112v47.018667a32 32 0 0 0 64 0V544h56.746667v47.018667c0 17.664 14.336 32 32 32zM327.125333 85.333333h369.877334C841.514667 85.333333 938.666667 186.752 938.666667 337.749333v348.458667C938.666667 837.248 841.514667 938.666667 696.917333 938.666667H327.082667C182.442667 938.666667 85.333333 837.205333 85.333333 686.208V337.749333C85.333333 186.752 182.485333 85.333333 327.082667 85.333333zM330.197333 512c0-25.941333 21.12-47.018667 47.018667-47.018667 25.898667 0 47.018667 21.077333 47.018667 47.018667a47.061333 47.061333 0 0 1-94.037334 0z" fill="#200E32" p-id="23703"></path></svg>