<?xml version="1.0" standalone="no"?><!DOCTYPE svg PUBLIC "-//W3C//DTD SVG 1.1//EN" "http://www.w3.org/Graphics/SVG/1.1/DTD/svg11.dtd"><svg t="1672537573754" class="icon" viewBox="0 0 1024 1024" version="1.1" xmlns="http://www.w3.org/2000/svg" p-id="23542" xmlns:xlink="http://www.w3.org/1999/xlink" width="64" height="64"><path d="M85.333333 512.256C85.333333 276.736 276.821333 85.333333 512 85.333333s426.666667 191.402667 426.666667 426.922667C938.666667 747.264 747.178667 938.666667 512 938.666667S85.333333 747.264 85.333333 512.256z m583.168 43.178667c4.522667-4.522667 10.282667-11.52 11.52-13.184 6.613333-8.618667 9.898667-19.328 9.898667-29.994667 0-11.989333-3.712-23.125333-10.709333-32.170667a158.805333 158.805333 0 0 1-3.157334-3.413333c-2.730667-2.944-6.698667-7.253333-10.453333-10.965333-33.749333-36.266667-121.898667-95.530667-168.021333-113.621334-6.997333-2.858667-24.704-9.045333-34.176-9.472-9.045333 0-17.706667 2.048-25.941334 6.186667a53.376 53.376 0 0 0-23.04 25.514667c-2.901333 7.381333-7.424 29.610667-7.424 30.037333-4.565333 24.32-6.997333 63.786667-6.997333 107.434667 0 41.642667 2.432 79.445333 6.144 104.149333 0.128 0.085333 0.469333 1.877333 1.024 4.608 1.706667 8.362667 5.12 25.728 8.874667 32.853333 9.045333 17.28 26.752 27.989333 45.696 27.989334h1.664c12.373333-0.426667 38.314667-11.093333 38.314666-11.52 43.648-18.133333 129.706667-74.496 164.309334-111.957334l2.474666-2.474666z" fill="#200E32" p-id="23543"></path></svg>