<?xml version="1.0" standalone="no"?><!DOCTYPE svg PUBLIC "-//W3C//DTD SVG 1.1//EN" "http://www.w3.org/Graphics/SVG/1.1/DTD/svg11.dtd"><svg t="1672537610942" class="icon" viewBox="0 0 1024 1024" version="1.1" xmlns="http://www.w3.org/2000/svg" p-id="25764" xmlns:xlink="http://www.w3.org/1999/xlink" width="64" height="64"><path d="M85.333333 455.253333C85.333333 250.965333 249.173333 85.333333 451.328 85.333333c97.066667 0 190.122667 38.954667 258.773333 108.373334a371.925333 371.925333 0 0 1 107.178667 261.546666c0 204.288-163.84 369.92-365.952 369.92C249.173333 825.173333 85.333333 659.541333 85.333333 455.253333z m725.888 297.984l109.013334 87.978667h1.877333c22.058667 22.314667 22.058667 58.453333 0 80.725333a56.064 56.064 0 0 1-79.829333 0l-90.453334-103.68a46.165333 46.165333 0 0 1 0-65.024 42.069333 42.069333 0 0 1 59.392 0z" fill="#200E32" p-id="25765"></path></svg>