<?xml version="1.0" standalone="no"?><!DOCTYPE svg PUBLIC "-//W3C//DTD SVG 1.1//EN" "http://www.w3.org/Graphics/SVG/1.1/DTD/svg11.dtd"><svg t="1672537648566" class="icon" viewBox="0 0 1024 1024" version="1.1" xmlns="http://www.w3.org/2000/svg" p-id="28306" xmlns:xlink="http://www.w3.org/1999/xlink" width="64" height="64"><path d="M870.485333 579.413333c15.274667 8.106667 27.050667 20.906667 35.328 33.706667 16.128 26.453333 14.848 58.88-0.853333 87.466667l-30.549333 51.2a90.88 90.88 0 0 1-77.184 44.373333c-15.232 0-32.256-4.266667-46.208-12.8-11.349333-7.253333-24.405333-9.813333-38.4-9.813333-43.136 0-79.36 35.413333-80.64 77.653333 0 49.066667-40.106667 87.466667-90.24 87.466667h-59.306667c-50.602667 0-90.709333-38.4-90.709333-87.466667-0.853333-42.24-37.077333-77.653333-80.213334-77.653333-14.421333 0-27.477333 2.56-38.4 9.813333-13.952 8.533333-31.36 12.8-46.208 12.8-31.402667 0-61.44-17.066667-77.610666-44.373333l-30.08-51.2c-16.128-27.733333-17.024-61.013333-0.853334-87.466667 6.954667-12.8 20.053333-25.6 34.858667-33.706667 12.202667-5.973333 20.053333-15.786667 27.477333-27.306666 21.76-36.693333 8.704-84.906667-28.330666-106.666667a87.210667 87.210667 0 0 1-32.298667-120.746667L149.333333 274.346667a90.624 90.624 0 0 1 122.965334-32.426667c37.973333 20.48 87.210667 6.826667 109.44-29.44 6.997333-11.946667 10.922667-24.746667 10.026666-37.546667-0.853333-16.64 3.925333-32.426667 12.202667-45.226666A93.653333 93.653333 0 0 1 481.152 85.333333h61.44c32.256 0 61.482667 17.92 77.653333 44.373334 7.808 12.8 13.056 28.586667 11.733334 45.226666-0.853333 12.8 3.072 25.6 10.026666 37.546667 22.229333 36.266667 71.509333 49.92 109.866667 29.44a90.112 90.112 0 0 1 122.538667 32.426667l29.226666 50.346666c25.301333 42.24 11.349333 96.426667-32.256 120.746667-37.077333 21.76-50.176 69.973333-27.904 106.666667 6.954667 11.52 14.805333 21.333333 27.008 27.306666zM388.693333 512.426667c0 66.986667 55.381333 120.32 123.818667 120.32s122.538667-53.333333 122.538667-120.32c0-66.986667-54.101333-120.746667-122.538667-120.746667-68.437333 0-123.818667 53.76-123.818667 120.746667z" fill="#200E32" p-id="28307"></path></svg>