<?xml version="1.0" standalone="no"?><!DOCTYPE svg PUBLIC "-//W3C//DTD SVG 1.1//EN" "http://www.w3.org/Graphics/SVG/1.1/DTD/svg11.dtd"><svg t="1672537618543" class="icon" viewBox="0 0 1024 1024" version="1.1" xmlns="http://www.w3.org/2000/svg" p-id="26404" xmlns:xlink="http://www.w3.org/1999/xlink" width="64" height="64"><path d="M500.394667 934.997333a32.64 32.64 0 0 0 30.592-0.170666l152.234666-81.365334c43.136-23.04 76.970667-48.768 103.338667-78.72a351.786667 351.786667 0 0 0 88.106667-234.453333l-1.834667-283.349333a77.226667 77.226667 0 0 0-53.290667-72.32L536.362667 89.6a80.597333 80.597333 0 0 0-52.48 0.256L201.728 188.288A77.312 77.312 0 0 0 149.333333 261.290667l1.792 283.136a351.914667 351.914667 0 0 0 91.264 233.514666c26.624 29.568 60.714667 54.912 104.362667 77.525334l153.642667 79.530666z m-40.277334-333.013333a32.384 32.384 0 0 0 22.826667 9.045333 32.426667 32.426667 0 0 0 22.741333-9.344l166.357334-164.010666a30.805333 30.805333 0 0 0-0.256-44.373334 32.853333 32.853333 0 0 0-45.568 0.298667l-143.744 141.653333-58.88-56.576a32.853333 32.853333 0 0 0-45.525334 0.298667 30.762667 30.762667 0 0 0 0.298667 44.373333l81.749333 78.634667z" fill="#200E32" p-id="26405"></path></svg>