<?xml version="1.0" standalone="no"?><!DOCTYPE svg PUBLIC "-//W3C//DTD SVG 1.1//EN" "http://www.w3.org/Graphics/SVG/1.1/DTD/svg11.dtd"><svg t="1672537639825" class="icon" viewBox="0 0 1024 1024" version="1.1" xmlns="http://www.w3.org/2000/svg" p-id="27672" xmlns:xlink="http://www.w3.org/1999/xlink" width="64" height="64"><path d="M764.544 610.986667a46.933333 46.933333 0 0 0-13.653333 41.386666l37.973333 209.92a46.08 46.08 0 0 1-19.2 46.08 46.933333 46.933333 0 0 1-49.92 3.413334l-189.013333-98.56a48.213333 48.213333 0 0 0-21.333334-5.546667h-11.52a34.645333 34.645333 0 0 0-11.52 3.84l-189.013333 98.986667c-9.386667 4.693333-19.925333 6.4-30.293333 4.693333a47.445333 47.445333 0 0 1-37.973334-54.186667l37.973334-209.92a47.744 47.744 0 0 0-13.653334-41.813333l-154.026666-149.333333a46.08 46.08 0 0 1-11.52-48.213334c5.76-16.896 20.352-29.226667 37.973333-32l212.053333-30.72c16.128-1.706667 30.293333-11.52 37.546667-26.026666l93.44-191.573334c2.176-4.266667 5.034667-8.192 8.533333-11.52l3.84-2.986666a28.629333 28.629333 0 0 1 6.826667-5.546667l4.693333-1.706667 7.253334-2.986666h17.92c16.085333 1.706667 30.208 11.264 37.546666 25.6l94.72 190.72c6.826667 13.952 20.053333 23.637333 35.413334 26.026666l212.053333 30.72c17.92 2.56 32.853333 14.933333 38.826667 32 5.546667 17.109333 0.725333 35.882667-12.373334 48.213334l-159.573333 151.04z" fill="#200E32" p-id="27673"></path></svg>