<?xml version="1.0" standalone="no"?><!DOCTYPE svg PUBLIC "-//W3C//DTD SVG 1.1//EN" "http://www.w3.org/Graphics/SVG/1.1/DTD/svg11.dtd"><svg t="1672537592139" class="icon" viewBox="0 0 1024 1024" version="1.1" xmlns="http://www.w3.org/2000/svg" p-id="24490" xmlns:xlink="http://www.w3.org/1999/xlink" width="64" height="64"><path d="M327.253333 85.333333h369.92C841.813333 85.333333 938.666667 186.88 938.666667 337.92v348.586667c0 150.613333-96.853333 252.16-241.493334 252.16H327.253333C182.613333 938.666667 85.333333 837.12 85.333333 686.506667V337.92C85.333333 186.88 182.613333 85.333333 327.253333 85.333333z m160.426667 554.24l202.666667-202.666666c14.506667-14.506667 14.506667-37.973333 0-52.906667a37.589333 37.589333 0 0 0-52.906667 0l-176.213333 176.213333-74.666667-74.666666a37.589333 37.589333 0 0 0-52.906667 0c-14.506667 14.506667-14.506667 37.973333 0 52.906666l101.546667 101.12c7.253333 7.253333 16.64 10.666667 26.026667 10.666667 9.813333 0 19.2-3.413333 26.453333-10.666667z" fill="#200E32" p-id="24491"></path></svg>