<?xml version="1.0" standalone="no"?><!DOCTYPE svg PUBLIC "-//W3C//DTD SVG 1.1//EN" "http://www.w3.org/Graphics/SVG/1.1/DTD/svg11.dtd"><svg t="1672537612775" class="icon" viewBox="0 0 1024 1024" version="1.1" xmlns="http://www.w3.org/2000/svg" p-id="25924" xmlns:xlink="http://www.w3.org/1999/xlink" width="64" height="64"><path d="M512 938.666667C276.48 938.666667 85.333333 747.946667 85.333333 512 85.333333 276.48 276.48 85.333333 512 85.333333c235.946667 0 426.666667 191.146667 426.666667 426.666667 0 235.946667-190.72 426.666667-426.666667 426.666667z m136.106667-268.373334a31.658667 31.658667 0 0 0 43.946666-11.093333c8.96-14.933333 4.266667-34.56-11.093333-43.946667L529.066667 524.8V327.68a31.957333 31.957333 0 1 0-64 0v215.466667c0 11.093333 5.973333 21.333333 15.786666 27.306666l167.253334 99.84z" fill="#200E32" p-id="25925"></path></svg>