<?xml version="1.0" standalone="no"?><!DOCTYPE svg PUBLIC "-//W3C//DTD SVG 1.1//EN" "http://www.w3.org/Graphics/SVG/1.1/DTD/svg11.dtd"><svg t="1672537637539" class="icon" viewBox="0 0 1024 1024" version="1.1" xmlns="http://www.w3.org/2000/svg" p-id="27514" xmlns:xlink="http://www.w3.org/1999/xlink" width="64" height="64"><path d="M260.821333 192h247.125334c103.338667 0 175.488 71.210667 175.488 173.226667v293.546666c0 102.016-72.106667 173.226667-175.488 173.226667H260.821333C157.482667 832 85.333333 760.789333 85.333333 658.773333V365.226667C85.333333 263.253333 157.482667 192 260.821333 192z m590.72 101.504c18.730667-9.514667 40.704-8.533333 58.581334 2.730667 17.877333 11.221333 28.544 30.72 28.544 52.053333v327.466667c0 21.333333-10.666667 40.832-28.544 52.053333a59.093333 59.093333 0 0 1-58.624 2.688l-63.189334-31.914667a69.248 69.248 0 0 1-37.888-62.165333V387.541333c0-26.496 14.506667-50.346667 37.888-62.122666l63.232-31.914667z" fill="#200E32" p-id="27515"></path></svg>