<?xml version="1.0" standalone="no"?><!DOCTYPE svg PUBLIC "-//W3C//DTD SVG 1.1//EN" "http://www.w3.org/Graphics/SVG/1.1/DTD/svg11.dtd"><svg t="1672537663427" class="icon" viewBox="0 0 1024 1024" version="1.1" xmlns="http://www.w3.org/2000/svg" p-id="29258" xmlns:xlink="http://www.w3.org/1999/xlink" width="64" height="64"><path d="M519.466667 649.258667h-14.933334c-102.528 0-185.642667-82.090667-185.642666-183.338667V268.672C318.890667 167.424 402.005333 85.333333 504.533333 85.333333h14.933334c102.528 0 185.685333 82.090667 185.685333 183.338667v197.248c0 101.248-83.157333 183.338667-185.685333 183.338667z m272.554666-189.184c0-22.613333 18.517333-40.832 41.301334-40.832 22.826667 0 41.344 18.261333 41.344 40.832 0 183.637333-140.8 335.232-321.28 355.626666v82.133334A41.088 41.088 0 0 1 512 938.666667a41.045333 41.045333 0 0 1-41.301333-40.832v-82.133334C290.090667 795.306667 149.333333 643.712 149.333333 460.074667c0-22.613333 18.517333-40.832 41.344-40.832 22.784 0 41.301333 18.261333 41.301334 40.832 0 152.448 125.610667 276.48 280.064 276.48 154.368 0 279.978667-124.032 279.978666-276.48z" fill="#200E32" p-id="29259"></path></svg>