<?xml version="1.0" standalone="no"?><!DOCTYPE svg PUBLIC "-//W3C//DTD SVG 1.1//EN" "http://www.w3.org/Graphics/SVG/1.1/DTD/svg11.dtd"><svg t="1672537657403" class="icon" viewBox="0 0 1024 1024" version="1.1" xmlns="http://www.w3.org/2000/svg" p-id="28782" xmlns:xlink="http://www.w3.org/1999/xlink" width="64" height="64"><path d="M456.704 150.144c-28.586667 0-52.906667 19.882667-59.733333 46.677333h229.632a61.994667 61.994667 0 0 0-59.733334-46.677333h-110.165333z m234.794667 46.677333h84.522666C865.706667 196.821333 938.666667 270.677333 938.666667 361.386667c0 0-2.56 38.4-3.413334 91.904a14.08 14.08 0 0 1-5.546666 10.88c-20.48 15.146667-39.253333 27.733333-40.96 28.586666-70.869333 47.488-153.216 80.938667-240.938667 97.578667a13.568 13.568 0 0 1-14.293333-6.954667 140.629333 140.629333 0 0 0-121.728-70.357333 142.933333 142.933333 0 0 0-122.538667 70.101333 13.610667 13.610667 0 0 1-14.208 6.826667 660.906667 660.906667 0 0 1-239.786667-96.810667l-40.96-28.501333a12.202667 12.202667 0 0 1-5.546666-10.368C87.466667 432.298667 85.333333 361.429333 85.333333 361.429333c0-90.752 72.96-164.608 162.645334-164.608h84.053333C340.224 134.144 392.746667 85.333333 456.746667 85.333333h110.165333c64 0 116.522667 48.810667 124.629333 111.488z m232.661333 349.952l-1.706667 0.853334c-86.229333 57.898667-189.952 96.384-298.837333 112.341333a32.128 32.128 0 0 1-34.986667-23.296 77.482667 77.482667 0 0 0-75.989333-58.794667h-1.28c-36.266667 0-66.56 23.338667-75.946667 58.794667a32.128 32.128 0 0 1-35.029333 23.296c-108.885333-15.957333-212.608-54.442667-298.837333-112.341333-0.426667-0.426667-4.693333-2.986667-8.106667-0.853334-3.84 2.133333-3.84 7.338667-3.84 7.338667l2.986667 220.373333C92.586667 865.237333 165.12 938.666667 254.805333 938.666667h513.962667c89.642667 0 162.218667-73.429333 162.218667-164.181334l3.413333-220.373333s0-5.162667-3.84-7.338667c-2.133333-1.28-4.693333-0.853333-6.4 0z m-380.373333 181.034667c0 18.176-14.08 32.426667-32 32.426667a32.170667 32.170667 0 0 1-32-32.426667v-55.722667c0-17.706667 14.506667-32.426667 32-32.426666 17.92 0 32 14.72 32 32.426666v55.722667z" fill="#200E32" p-id="28783"></path></svg>